<svg xmlns="http://www.w3.org/2000/svg" width="460.29" height="426.703" viewBox="0 0 460.29 426.703"><g transform="translate(-19.855 -23.261)"><path d="M424.438,132.173a4.781,4.781,0,0,1,1.5.469,6.307,6.307,0,0,1,2.986,3.021,6.393,6.393,0,0,1,.609,2.919,6.475,6.475,0,0,1-1,3.272,6.492,6.492,0,0,1-2.866,2.463,6.464,6.464,0,0,1-7.515-1.685,6.5,6.5,0,0,1-1.54-3.452,6.491,6.491,0,0,1,.49-3.387,6.379,6.379,0,0,1,1.8-2.379,6.3,6.3,0,0,1,3.99-1.457,4.777,4.777,0,0,1,1.554.216c-.007.044-.554-.11-1.551-.075a6.318,6.318,0,0,0-3.828,1.513,6.19,6.19,0,0,0-2.121,5.527,6.181,6.181,0,0,0,1.477,3.26,6.139,6.139,0,0,0,7.1,1.593,6.2,6.2,0,0,0,2.727-2.317,6.19,6.19,0,0,0,.443-5.9,6.314,6.314,0,0,0-2.815-3C424.987,132.31,424.425,132.216,424.438,132.173Z" fill="#e0e0e0"/><path d="M429.52,125.391a1.264,1.264,0,0,1-.014-.222c0-.166-.009-.388-.016-.676-.008-.619-.021-1.512-.037-2.671l.046.057-5.771-1.259.1-.051-1.518,3.23-.027.058-.065,0a14.435,14.435,0,0,0-3.762.667l-.069.022-.052-.051-2.537-2.512.161.018-4.982,3.172.058-.169c.373,1.041.784,2.187,1.2,3.361l.031.086-.062.067a14.349,14.349,0,0,0-2.189,3.118l-.044.085h-.1l-3.568.013.157-.127c-.4,1.811-.839,3.764-1.285,5.765l-.093-.19,3.225,1.528.094.045.005.105a14.4,14.4,0,0,0,.655,3.747l.032.1-.075.076-2.518,2.531.024-.221,3.164,4.989-.214-.074,3.364-1.2.1-.037.08.075a14.332,14.332,0,0,0,3.106,2.188h0c.044.072-.1-.16.1.161v1.79c0,.6,0,1.189,0,1.779l-.142-.177,5.764,1.294-.2.1,1.532-3.223.046-.1.108,0a14.283,14.283,0,0,0,3.748-.65l.1-.032.075.075,2.528,2.521-.215-.023,4.992-3.156-.068.2-1.193-3.365-.033-.093.067-.072a14.292,14.292,0,0,0,2.2-3.11l.045-.085h.1l3.568,0-.147.119c.459-2.027.892-3.94,1.3-5.761l.076.156-3.22-1.539-.072-.034,0-.079a14.4,14.4,0,0,0-.644-3.763l-.022-.069.051-.051,2.528-2.521-.015.133-3.139-5,.1.033-3.371,1.175-.034.012-.025-.024a14.946,14.946,0,0,0-2.292-1.765l-.614-.37a1.552,1.552,0,0,1-.2-.125,1.9,1.9,0,0,1,.217.1c.141.072.354.182.63.345a14.025,14.025,0,0,1,2.34,1.731l-.059-.012L436,126.334l.061-.022.036.055,3.183,4.976.046.072-.061.062-2.51,2.538.029-.12a14.63,14.63,0,0,1,.677,3.824l-.074-.113,3.227,1.524.1.047-.025.109c-.4,1.823-.83,3.737-1.281,5.766l-.026.117h-.122l-3.568.014.139-.085a14.611,14.611,0,0,1-2.238,3.186l.034-.165,1.2,3.362.045.126-.113.071-4.986,3.166-.117.074-.1-.1-2.532-2.517.177.043a14.636,14.636,0,0,1-3.84.67l.154-.1-1.529,3.224-.062.13-.14-.031-5.764-1.291-.142-.032v-.145l0-1.779,0-.895v-.9c.2.322.054.089.1.161h0a14.652,14.652,0,0,1-3.184-2.244l.184.038-3.364,1.2-.136.049-.078-.122c-1.086-1.717-2.158-3.411-3.159-4.991l-.076-.12.1-.1,2.521-2.528-.043.177a14.735,14.735,0,0,1-.666-3.84l.1.149-3.222-1.534-.122-.058.03-.132,1.3-5.762.029-.126h.129l3.568,0-.138.085a14.6,14.6,0,0,1,2.247-3.178l-.032.152c-.416-1.176-.822-2.324-1.19-3.366l-.039-.108.1-.061,5-3.149.088-.056.073.074,2.523,2.526-.12-.029a14.6,14.6,0,0,1,3.825-.654l-.092.061,1.544-3.217.032-.067.071.017,5.756,1.326.046.01v.046c-.01,1.149-.018,2.033-.024,2.647-.005.292-.01.517-.013.685A1.9,1.9,0,0,1,429.52,125.391Z" fill="#e0e0e0"/><path d="M464.461,413.446s-.012-.375-.018-1.089-.01-1.776-.018-3.156c-.01-2.772-.024-6.839-.041-12.06-.021-10.436-.051-25.477-.088-43.944l.165.164-104.129.049h-.008l.213-.213c0,21.323-.01,41.7-.015,60.249l-.2-.2,74.9.1,21.51.054,5.735.024,1.483.012c.334,0,.511.012.511.012s-.161.008-.487.012l-1.461.012-5.7.024-21.464.054-75.03.1h-.2v-.2c0-18.552-.01-38.926-.015-60.249v-.213h.221l104.129.049h.164v.164c-.037,18.509-.067,33.585-.087,44.046-.018,5.2-.032,9.259-.042,12.023-.008,1.366-.014,2.411-.018,3.125S464.461,413.446,464.461,413.446Z" fill="#e0e0e0"/><path d="M464.5,360.492c0,.118-23.293.213-52.019.213s-52.024-.1-52.024-.213,23.288-.213,52.024-.213S464.5,360.374,464.5,360.492Z" fill="#e0e0e0"/><rect width="32.167" height="32.167" transform="translate(369.344 370.426)" fill="#f5f5f5"/><path d="M456.909,375.732a1.981,1.981,0,0,1-.473.043l-1.357.04-4.989.068-16.461.062-16.463-.062-4.989-.068-1.356-.04a1.981,1.981,0,0,1-.473-.043,1.983,1.983,0,0,1,.473-.043l1.356-.04,4.989-.067,16.463-.063,16.461.063,4.989.067,1.357.04A1.983,1.983,0,0,1,456.909,375.732Z" fill="#e0e0e0"/><path d="M457.945,382.917a2.072,2.072,0,0,1-.484.043l-1.386.04-5.1.068-16.826.062-16.83-.062-5.1-.068-1.387-.04a2.057,2.057,0,0,1-.483-.043,2.134,2.134,0,0,1,.483-.043l1.387-.039,5.1-.068,16.83-.063,16.826.063,5.1.068,1.386.039A2.15,2.15,0,0,1,457.945,382.917Z" fill="#e0e0e0"/><path d="M457.945,390.1a2.148,2.148,0,0,1-.484.043l-1.386.04-5.1.067-16.826.063-16.83-.063-5.1-.067-1.387-.04a2.132,2.132,0,0,1-.483-.043,2.062,2.062,0,0,1,.483-.043l1.387-.04,5.1-.068,16.83-.062,16.826.062,5.1.068,1.386.04A2.077,2.077,0,0,1,457.945,390.1Z" fill="#e0e0e0"/><path d="M457.945,397.288a2.148,2.148,0,0,1-.484.043l-1.386.04-5.1.067-16.826.063-16.83-.063-5.1-.067-1.387-.04a2.132,2.132,0,0,1-.483-.043,2.062,2.062,0,0,1,.483-.043l1.387-.04,5.1-.068,16.83-.062,16.826.062,5.1.068,1.386.04A2.077,2.077,0,0,1,457.945,397.288Z" fill="#e0e0e0"/><circle cx="43.278" cy="43.278" r="43.278" transform="translate(102.133 84.465) rotate(-45)" fill="#f5f5f5"/><path d="M182.988,85.8a8.71,8.71,0,0,1-1.529.1l-4.206.085c-3.57.049-8.543.083-14.156.092h-.278V85.8c0-.9,0-1.845,0-2.807,0-6.269.031-11.944.082-16.052.036-1.98.066-3.619.089-4.864a10.781,10.781,0,0,1,.109-1.784,10.925,10.925,0,0,1,.109,1.784c.023,1.245.053,2.884.089,4.864.051,4.108.082,9.783.082,16.052,0,.962,0,1.909,0,2.807l-.278-.278c5.613.009,10.586.042,14.156.092l4.206.085A8.588,8.588,0,0,1,182.988,85.8Z" fill="#e0e0e0"/><path d="M163.23,48.3a12.069,12.069,0,0,1,.28,3.635,12.073,12.073,0,0,1-.28,3.636,12.035,12.035,0,0,1-.28-3.636A12.031,12.031,0,0,1,163.23,48.3Z" fill="#e0e0e0"/><path d="M182.949,54.135a11.689,11.689,0,0,1-2.335,2.731,11.694,11.694,0,0,1-2.732,2.336,11.694,11.694,0,0,1,2.336-2.732A11.689,11.689,0,0,1,182.949,54.135Z" fill="#e0e0e0"/><path d="M194.479,66.73a15.088,15.088,0,0,1-2.982,1.991,15.084,15.084,0,0,1-3.141,1.73,15.945,15.945,0,0,1,6.123-3.721Z" fill="#e0e0e0"/><path d="M201.236,85.421a22.156,22.156,0,0,1-4.957.28,22.156,22.156,0,0,1-4.957-.28,22.227,22.227,0,0,1,4.957-.28A22.227,22.227,0,0,1,201.236,85.421Z" fill="#e0e0e0"/><path d="M132.494,84.76a19.793,19.793,0,0,1-4.682.28,19.793,19.793,0,0,1-4.682-.28,19.856,19.856,0,0,1,4.682-.28A19.856,19.856,0,0,1,132.494,84.76Z" fill="#e0e0e0"/><path d="M137.356,98.676a20.479,20.479,0,0,1-3.538,3.209,20.482,20.482,0,0,1-3.889,2.773,20.571,20.571,0,0,1,3.538-3.209A20.6,20.6,0,0,1,137.356,98.676Z" fill="#e0e0e0"/><path d="M149.35,109.437a31.767,31.767,0,0,1-2.408,4.174,31.834,31.834,0,0,1-2.556,4.086,15.7,15.7,0,0,1,2.076-4.374A15.73,15.73,0,0,1,149.35,109.437Z" fill="#e0e0e0"/><path d="M163.23,123.318a22.163,22.163,0,0,1-.28-4.957,22.161,22.161,0,0,1,.28-4.958,22.232,22.232,0,0,1,.28,4.958A22.234,22.234,0,0,1,163.23,123.318Z" fill="#e0e0e0"/><path d="M184.6,116.712a14.5,14.5,0,0,1-4.088-2.8,14.511,14.511,0,0,1-3.331-3.667,45.9,45.9,0,0,1,3.7,3.245A45.993,45.993,0,0,1,184.6,116.712Z" fill="#e0e0e0"/><path d="M194.627,105.912a17.2,17.2,0,0,1-3.283-2.887,17.277,17.277,0,0,1-2.887-3.282,17.159,17.159,0,0,1,3.283,2.886A17.274,17.274,0,0,1,194.627,105.912Z" fill="#e0e0e0"/><path d="M136.9,71.43a13.2,13.2,0,0,1-2.9-2.5,13.2,13.2,0,0,1-2.5-2.9,13.3,13.3,0,0,1,2.9,2.5A13.3,13.3,0,0,1,136.9,71.43Z" fill="#e0e0e0"/><path d="M149.277,58.393a12.748,12.748,0,0,1-2.847-2.44,12.748,12.748,0,0,1-2.453-2.836,12.71,12.71,0,0,1,2.848,2.439A12.725,12.725,0,0,1,149.277,58.393Z" fill="#e0e0e0"/><g opacity="0.8"><path d="M398.739,62.294a28.7,28.7,0,0,1,6.226,4.386l6.652-2.368,6.253,9.869-4.982,5a28.647,28.647,0,0,1,1.307,7.5l6.376,3.029-2.558,11.4-7.058.016a28.555,28.555,0,0,1-4.387,6.226l2.368,6.653-9.868,6.253-5.005-4.982a28.63,28.63,0,0,1-7.5,1.305l-3.027,6.377-11.4-2.557-.015-7.059a28.576,28.576,0,0,1-6.227-4.387l-6.653,2.369-6.253-9.869,4.984-5a28.714,28.714,0,0,1-1.307-7.5l-6.375-3.028,2.557-11.4,7.058-.014a28.563,28.563,0,0,1,4.387-6.227l-2.368-6.654,9.867-6.252,5,4.983a28.6,28.6,0,0,1,7.505-1.306l3.027-6.376,11.4,2.557.017,7.058ZM388.688,75.709a12.533,12.533,0,1,0,9.486,14.972A12.532,12.532,0,0,0,388.688,75.709Z" fill="#ebebeb" fill-rule="evenodd"/></g><path d="M63.7,162.583h73.973s-6.542-11.9-25.583-10.171c-18.185,1.654-19.109-5.857-28.356-6.781S66.783,151.795,63.7,162.583Z" fill="#f5f5f5"/><path d="M223.8,297.075h59.876s-5.3-9.636-20.707-8.233c-14.72,1.339-15.468-4.74-22.953-5.489S226.292,288.343,223.8,297.075Z" fill="#f5f5f5"/><path d="M480.145,444.82c0,.144-103.048.261-230.134.261-127.131,0-230.156-.117-230.156-.261s103.025-.26,230.156-.26C377.1,444.56,480.145,444.676,480.145,444.82Z" fill="#263238"/><rect width="145.283" height="97.276" transform="translate(309.909 145.125)" fill="#fff"/><path d="M455.191,242.4s-.014-.608-.022-1.77l-.023-5.132c-.013-4.5-.03-11.107-.053-19.564-.026-16.9-.064-41.193-.11-70.81l.208.208-145.271.053h-.011l.26-.261c-.008,34.655-.015,67.609-.022,97.276l-.238-.239,104.667.118,29.9.064,7.954.029,2.053.014c.463.005.705.014.705.014s-.223.009-.677.014l-2.026.014-7.907.029-29.849.064-104.823.117h-.239V242.4c-.006-29.667-.014-62.621-.022-97.276v-.26h.272l145.271.052h.209v.208c-.045,29.671-.083,54.008-.109,70.94-.023,8.436-.041,15.025-.053,19.517-.01,2.228-.018,3.933-.023,5.093S455.191,242.4,455.191,242.4Z" fill="#e8505b"/><path d="M309.909,153.806c0-.144,32.5-.26,72.578-.26s72.584.116,72.584.26-32.491.26-72.584.26S309.909,153.95,309.909,153.806Z" fill="#e8505b"/><g opacity="0.3"><path d="M315.641,149.427a1.164,1.164,0,1,1-1.165-1.165A1.165,1.165,0,0,1,315.641,149.427Z" fill="#e8505b"/></g><g opacity="0.3"><path d="M319.63,149.427a1.164,1.164,0,1,1-1.164-1.165A1.164,1.164,0,0,1,319.63,149.427Z" fill="#e8505b"/></g><g opacity="0.3"><path d="M323.563,149.427a1.164,1.164,0,1,1-1.164-1.165A1.164,1.164,0,0,1,323.563,149.427Z" fill="#e8505b"/></g><g opacity="0.3"><rect width="38.754" height="38.754" transform="translate(322.399 163.95)" fill="#e8505b"/></g><path d="M435.268,174.9c0,.144-15.114.261-33.755.261s-33.758-.117-33.758-.261,15.111-.26,33.758-.26S435.268,174.761,435.268,174.9Z" fill="#e8505b"/><path d="M435.268,182.106c0,.144-15.114.26-33.755.26s-33.758-.116-33.758-.26,15.111-.26,33.758-.26S435.268,181.962,435.268,182.106Z" fill="#e8505b"/><path d="M435.268,189.308c0,.143-15.114.26-33.755.26s-33.758-.117-33.758-.26,15.111-.261,33.758-.261S435.268,189.164,435.268,189.308Z" fill="#e8505b"/><path d="M407.656,196.509a8.989,8.989,0,0,1-1.568.1l-4.275.082c-3.611.047-8.6.077-14.106.077s-10.5-.03-14.109-.077l-4.276-.082a8.982,8.982,0,0,1-1.567-.1,9.062,9.062,0,0,1,1.567-.1l4.276-.083c3.61-.047,8.6-.076,14.109-.076s10.495.029,14.106.076l4.275.083A9.069,9.069,0,0,1,407.656,196.509Z" fill="#e8505b"/><g opacity="0.3"><rect width="18.212" height="18.213" transform="translate(324.824 215.77)" fill="#e8505b"/></g><g opacity="0.3"><rect width="18.212" height="18.213" transform="translate(357.853 215.77)" fill="#e8505b"/></g><g opacity="0.3"><rect width="18.213" height="18.213" transform="translate(390.882 215.77)" fill="#e8505b"/></g><g opacity="0.3"><rect width="18.213" height="18.213" transform="translate(423.911 215.77)" fill="#e8505b"/></g><rect width="129.422" height="52.569" transform="translate(44.21 180.169)" fill="#fff"/><path d="M173.632,232.738s-.009-.323-.014-.939-.009-1.534-.016-2.727c-.008-2.4-.02-5.923-.036-10.462-.018-9.073-.045-22.2-.078-38.441l.144.144-129.413.061H44.21l.205-.2c0,18.409-.006,36.179-.009,52.569l-.2-.2,92.793.093,26.919.054,7.2.025,1.865.012c.421,0,.641.012.641.012s-.2.008-.616.013l-1.842.012-7.164.025-26.874.054-92.926.093h-.2v-.2c0-16.39-.006-34.16-.009-52.569v-.205h.214l129.413.061h.145v.144c-.033,16.28-.059,29.435-.078,38.528-.015,4.526-.027,8.039-.035,10.43-.007,1.182-.012,2.085-.016,2.7S173.632,232.738,173.632,232.738Z" fill="#e8505b"/><path d="M44.34,187.259c0-.114,28.928-.205,64.6-.205s64.612.091,64.612.205-28.923.2-64.612.2S44.34,187.372,44.34,187.259Z" fill="#e8505b"/><g opacity="0.3"><path d="M49.758,184.088a.939.939,0,1,1-.939-.94A.94.94,0,0,1,49.758,184.088Z" fill="#e8505b"/></g><g opacity="0.3"><path d="M52.976,184.088a.939.939,0,1,1-.939-.94A.939.939,0,0,1,52.976,184.088Z" fill="#e8505b"/></g><g opacity="0.3"><path d="M56.149,184.088a.939.939,0,1,1-.94-.94A.94.94,0,0,1,56.149,184.088Z" fill="#e8505b"/></g><g opacity="0.3"><rect width="31.26" height="31.26" transform="translate(55.209 195.803)" fill="#e8505b"/></g><path d="M164.678,204.18c0,.113-16.087.205-35.926.205s-35.928-.092-35.928-.205,16.083-.2,35.928-.2S164.678,204.067,164.678,204.18Z" fill="#e8505b"/><path d="M164.678,210.549c0,.113-16.087.205-35.926.205s-35.928-.092-35.928-.205,16.083-.205,35.928-.205S164.678,210.435,164.678,210.549Z" fill="#e8505b"/><path d="M139.079,216.917a2.045,2.045,0,0,1-.47.041l-1.347.039-4.957.065-16.352.06-16.356-.06L94.641,217l-1.347-.039a2.046,2.046,0,0,1-.47-.041,2.045,2.045,0,0,1,.47-.041l1.347-.039,4.956-.065,16.356-.06,16.352.06,4.957.065,1.347.039A2.045,2.045,0,0,1,139.079,216.917Z" fill="#e8505b"/><path d="M268.732,114.11c-2.17-1.446-5.148-.571-7.317.876s-4.023,3.43-6.454,4.374c-4.564,1.774-10.547-.328-14.1,3.048-2.251,2.143-2.481,5.66-4.2,8.248-2.9,4.36-9.851,6-10.447,11.2-.348,3.034,2.052,5.943,4.985,6.794a10.7,10.7,0,0,0,8.7-1.738c2.97-1.974,5.3-5.018,8.688-6.142,3.459-1.148,7.728-.187,10.457-2.6s2.321-6.857,4.278-9.94a19.966,19.966,0,0,1,4.155-4.056c1.471-1.271,2.872-2.842,3.118-4.77s-.544-5.217-1.869-5.291" fill="#f5f5f5"/><path d="M212.384,326.56c.123-.074.528.33.9.9s.588,1.106.471,1.19-.523-.322-.906-.9S212.261,326.635,212.384,326.56Z" fill="#263238"/><path d="M208.1,317.54a12.153,12.153,0,0,1,1.9,4.629,12.171,12.171,0,0,1-1.9-4.629Z" fill="#263238"/><path d="M205.779,307.818a12.125,12.125,0,0,1,.913,4.92,12.17,12.17,0,0,1-.913-4.92Z" fill="#263238"/><path d="M205.428,297.83a12.165,12.165,0,0,1-.07,5,12.164,12.164,0,0,1,.07-5Z" fill="#263238"/><path d="M207.045,287.966a12.132,12.132,0,0,1-1.056,4.892,12.177,12.177,0,0,1,1.056-4.892Z" fill="#263238"/><path d="M210.641,278.647a12.15,12.15,0,0,1-2.047,4.565,12.15,12.15,0,0,1,2.047-4.565Z" fill="#263238"/><path d="M216.151,270.313a6.3,6.3,0,0,1-1.282,2.163,6.779,6.779,0,0,1-1.692,1.86c-.135-.089.447-1.052,1.273-2.169S216.04,270.222,216.151,270.313Z" fill="#263238"/><path d="M222.874,262.9c.1.1-.586.993-1.537,1.991s-1.808,1.729-1.914,1.632.581-.988,1.536-1.991S222.771,262.8,222.874,262.9Z" fill="#263238"/><path d="M229.914,255.794c.1.1-.6.979-1.57,1.964s-1.841,1.7-1.942,1.6.6-.982,1.57-1.965S229.81,255.694,229.914,255.794Z" fill="#263238"/><path d="M236.487,248.254c.115.086-.505,1.026-1.385,2.1s-1.681,1.866-1.789,1.77a6.291,6.291,0,0,1,1.386-2.1C235.571,248.96,236.372,248.168,236.487,248.254Z" fill="#263238"/><path d="M241.591,239.67a5.374,5.374,0,0,1-.84,2.381c-.64,1.239-1.332,2.139-1.453,2.064a7.36,7.36,0,0,1,.99-2.3A7.5,7.5,0,0,1,241.591,239.67Z" fill="#263238"/><path d="M244.025,230.006a8.828,8.828,0,0,1-.821,4.932,19.656,19.656,0,0,1,.821-4.932Z" fill="#263238"/><path d="M243.283,220.067a8.849,8.849,0,0,1,.768,4.94,19.629,19.629,0,0,1-.768-4.94Z" fill="#263238"/><path d="M239.353,210.92c.116-.081.852.791,1.51,2.022a5.171,5.171,0,0,1,.852,2.376,21.241,21.241,0,0,1-2.362-4.4Z" fill="#263238"/><path d="M232.376,203.823a5.119,5.119,0,0,1,2.16,1.312c1.075.9,1.776,1.8,1.674,1.894s-.957-.62-2.008-1.5S232.294,203.945,232.376,203.823Z" fill="#263238"/><path d="M223.286,199.764a8.514,8.514,0,0,1,4.73,1.616,21.448,21.448,0,0,1-4.73-1.616Z" fill="#263238"/><path d="M213.35,199.312a8.238,8.238,0,0,1,4.99-.265,8.119,8.119,0,0,1-2.488.265A8.235,8.235,0,0,1,213.35,199.312Z" fill="#263238"/><path d="M204.125,202.988c-.082-.114.776-.871,2.012-1.533a4.971,4.971,0,0,1,2.39-.829,25.693,25.693,0,0,1-4.4,2.362Z" fill="#263238"/><path d="M197.259,210.177a5.058,5.058,0,0,1,1.227-2.21c.858-1.107,1.739-1.835,1.838-1.736s-.591.975-1.427,2.055S197.384,210.253,197.259,210.177Z" fill="#263238"/><path d="M193.89,219.521a4.921,4.921,0,0,1,.194-2.523,4.978,4.978,0,0,1,.978-2.333,8.417,8.417,0,0,1-.472,2.456A8.611,8.611,0,0,1,193.89,219.521Z" fill="#263238"/><path d="M195.077,229.366a8,8,0,0,1-1.179-4.853,8.515,8.515,0,0,1,.707,2.4A8.33,8.33,0,0,1,195.077,229.366Z" fill="#263238"/><path d="M200.148,237.935c-.107.092-.935-.687-1.75-1.821a5.228,5.228,0,0,1-1.164-2.241c.126-.074.785.827,1.587,1.937A7.564,7.564,0,0,1,200.148,237.935Z" fill="#263238"/><path d="M207.512,244.677a5.535,5.535,0,0,1-2.155-1.314c-1.084-.873-1.833-1.727-1.736-1.831s.994.565,2.064,1.426S207.6,244.558,207.512,244.677Z" fill="#263238"/><path d="M216.18,249.647a6.163,6.163,0,0,1-2.348-.9c-1.239-.631-2.185-1.242-2.112-1.366a12.131,12.131,0,0,1,4.46,2.267Z" fill="#263238"/><path d="M225.7,252.676a9.473,9.473,0,0,1-4.845-1.241,7.209,7.209,0,0,1,2.469.441A7.3,7.3,0,0,1,225.7,252.676Z" fill="#263238"/><path d="M235.656,253.19a8.984,8.984,0,0,1-5,.1,18.832,18.832,0,0,1,5-.1Z" fill="#263238"/><path d="M245.281,250.616a8.753,8.753,0,0,1-4.7,1.69,19.945,19.945,0,0,1,4.7-1.69Z" fill="#263238"/><path d="M253.623,245.154c.1.1-.663.951-1.77,1.8a5.343,5.343,0,0,1-2.2,1.244c-.079-.123.794-.821,1.88-1.657S253.525,245.045,253.623,245.154Z" fill="#263238"/><path d="M260.133,237.588a5.419,5.419,0,0,1-1.228,2.205c-.836,1.116-1.67,1.889-1.776,1.795a7.372,7.372,0,0,1,1.359-2.107C259.313,238.385,260.01,237.509,260.133,237.588Z" fill="#263238"/><path d="M264.464,228.6a9.312,9.312,0,0,1-1.871,4.639,17.681,17.681,0,0,1,1.871-4.639Z" fill="#263238"/><path d="M266.4,218.8a9.57,9.57,0,0,1-.679,4.955,16.7,16.7,0,0,1,.679-4.955Z" fill="#263238"/><path d="M266.143,208.808a12.18,12.18,0,0,1,.386,4.989,12.134,12.134,0,0,1-.386-4.989Z" fill="#263238"/><path d="M263.971,199.048a12.175,12.175,0,0,1,1.308,4.832,12.175,12.175,0,0,1-1.308-4.832Z" fill="#263238"/><path d="M260.143,189.807a6.147,6.147,0,0,1,1.331,2.14,6.244,6.244,0,0,1,.775,2.4A6.241,6.241,0,0,1,261,192.167,6.338,6.338,0,0,1,260.143,189.807Z" fill="#263238"/><path d="M255.223,181.1c.123-.074.79.834,1.49,2.027a6.216,6.216,0,0,1,1.041,2.289c-.125.071-.793-.836-1.491-2.027A6.22,6.22,0,0,1,255.223,181.1Z" fill="#263238"/><path d="M250.258,172.408c.128-.066.772.858,1.439,2.063a6.224,6.224,0,0,1,.983,2.315c-.124.072-.768-.851-1.439-2.064A6.189,6.189,0,0,1,250.258,172.408Z" fill="#263238"/><path d="M246.352,163.213A12.125,12.125,0,0,1,248.1,167.9a12.14,12.14,0,0,1-1.744-4.683Z" fill="#263238"/><path d="M244.65,153.378a17.452,17.452,0,0,1,.53,4.972,9.338,9.338,0,0,1-.53-4.972Z" fill="#263238"/><path d="M245.476,143.428a17.152,17.152,0,0,1-.723,4.95,9.422,9.422,0,0,1,.723-4.95Z" fill="#263238"/><path d="M248.736,133.992a7.323,7.323,0,0,1-.8,2.376,7.309,7.309,0,0,1-1.131,2.238,9.357,9.357,0,0,1,1.928-4.614Z" fill="#263238"/><path d="M254.311,125.713a7.379,7.379,0,0,1-1.39,2.085c-.842,1.084-1.551,1.949-1.673,1.868a5.423,5.423,0,0,1,1.261-2.186C253.361,126.377,254.206,125.617,254.311,125.713Z" fill="#263238"/><path d="M261.817,119.132c.08.121-.784.833-1.869,1.672a7.324,7.324,0,0,1-2.092,1.383c-.1-.106.67-.946,1.774-1.8A5.454,5.454,0,0,1,261.817,119.132Z" fill="#263238"/><path d="M270.718,114.606a17.352,17.352,0,0,1-4.591,1.984,9.373,9.373,0,0,1,4.591-1.984Z" fill="#263238"/><path d="M277.97,112.772c.021.142-.509.358-1.182.483s-1.246.11-1.278-.03.5-.356,1.183-.483S277.95,112.629,277.97,112.772Z" fill="#263238"/><path d="M298.377,83.327s11.746-8.378,28-2.967c0,0,1.336,13.456-11.7,24.157" fill="#e8505b"/><path d="M261.351,108.19c.5.75,13.246,21.242,13.246,21.242l38.274-23.579a13.4,13.4,0,0,0,3.738-19.378h0a13.4,13.4,0,0,0-18.232-3.148Z" fill="#e8505b"/><path d="M274.6,129.432l-.858,14.418s24.8-12.012,18.613-25.356Z" fill="#263238"/><path d="M279.08,96.285s-16.815-7.42-30.665,3.462l12.936,8.443Z" fill="#263238"/><path d="M278.961,108.2l-23.935,14.973s.822,2.574,1.465,2.36c.539-.18,18.525-10.8,24.357-14.248a1.8,1.8,0,0,0,.471-2.7h0A1.809,1.809,0,0,0,278.961,108.2Z" fill="#263238"/><circle cx="7.663" cy="7.663" r="7.663" transform="matrix(0.229, -0.973, 0.973, 0.229, 291.793, 102.558)" fill="#fafafa"/><path d="M308.671,96.853c-.06,0-.028-.683-.338-1.846a7.643,7.643,0,0,0-2.8-4.1,7.455,7.455,0,0,0-7.053-1.027,7.338,7.338,0,0,0-3.437,2.593,7.386,7.386,0,0,0,0,8.756,7.347,7.347,0,0,0,3.438,2.594,7.457,7.457,0,0,0,7.054-1.027,7.64,7.64,0,0,0,2.8-4.1c.31-1.164.278-1.85.338-1.847a1.736,1.736,0,0,1,.027.492,6.058,6.058,0,0,1-.169,1.4,7.623,7.623,0,0,1-2.773,4.342,7.752,7.752,0,0,1-3.294,1.5,7.878,7.878,0,0,1-4.147-.317,7.785,7.785,0,0,1-3.685-2.742,7.856,7.856,0,0,1,0-9.361,7.776,7.776,0,0,1,3.684-2.742,7.874,7.874,0,0,1,4.146-.317,7.734,7.734,0,0,1,3.294,1.5,7.625,7.625,0,0,1,2.774,4.342,6.058,6.058,0,0,1,.169,1.4A1.719,1.719,0,0,1,308.671,96.853Z" fill="#263238"/><path d="M318,101.961c-.1.01-.215-1.488-.8-3.817a29.042,29.042,0,0,0-1.332-3.992,28.8,28.8,0,0,0-5.561-8.612,29.261,29.261,0,0,0-3.09-2.858c-1.882-1.493-3.2-2.214-3.149-2.3a4.051,4.051,0,0,1,.954.451,10.226,10.226,0,0,1,1.066.63c.4.266.877.548,1.353.928a25.685,25.685,0,0,1,3.214,2.818,27.013,27.013,0,0,1,5.657,8.761,25.741,25.741,0,0,1,1.247,4.09c.149.59.212,1.139.289,1.615a10.422,10.422,0,0,1,.136,1.23A4.082,4.082,0,0,1,318,101.961Z" fill="#263238"/><path d="M315.936,103.064c-.1.01-.219-1.513-.816-3.882a29.853,29.853,0,0,0-1.353-4.063,29.583,29.583,0,0,0-5.631-8.781,30.032,30.032,0,0,0-3.128-2.924c-1.9-1.531-3.238-2.275-3.188-2.361a4.169,4.169,0,0,1,.966.468,10.555,10.555,0,0,1,1.079.649c.407.274.887.565,1.369.954a26.331,26.331,0,0,1,3.252,2.886,27.732,27.732,0,0,1,5.726,8.928,26.492,26.492,0,0,1,1.266,4.159c.152.6.217,1.158.3,1.643a10.876,10.876,0,0,1,.14,1.251A4.245,4.245,0,0,1,315.936,103.064Z" fill="#263238"/><path d="M81.84,420.967c-.857-3.4,1.388-6.8,3.9-9.245s5.5-4.639,6.822-7.888c2.133-5.265-.656-12.113,2.958-16.5,2.126-2.577,5.917-3.422,7.807-6.179a14.156,14.156,0,0,0,1.715-4.934,50.221,50.221,0,0,1,12.622-23.3,43.571,43.571,0,0,1-5.028,22.5c-1.469,2.76-3.269,5.448-3.768,8.534-.811,5.012,1.959,10.2.7,15.113-1.441,5.625-7.79,9.359-8.123,15.156-.281,4.9,3.967,9.227,3.621,14.124a13.241,13.241,0,0,1-2.214,5.8c-3.826,6.279-9.419,10.588-17.858,10.4l-10.339.3Z" fill="#e8505b"/><g opacity="0.3"><path d="M81.84,420.967c-.857-3.4,1.388-6.8,3.9-9.245s5.5-4.639,6.822-7.888c2.133-5.265-.656-12.113,2.958-16.5,2.126-2.577,5.917-3.422,7.807-6.179a14.156,14.156,0,0,0,1.715-4.934,50.221,50.221,0,0,1,12.622-23.3,43.571,43.571,0,0,1-5.028,22.5c-1.469,2.76-3.269,5.448-3.768,8.534-.811,5.012,1.959,10.2.7,15.113-1.441,5.625-7.79,9.359-8.123,15.156-.281,4.9,3.967,9.227,3.621,14.124a13.241,13.241,0,0,1-2.214,5.8c-3.826,6.279-9.419,10.588-17.858,10.4l-10.339.3Z"/></g><path d="M72.557,445.111a8.25,8.25,0,0,1-2.846-.077,17.325,17.325,0,0,1-3.354-.865,14.226,14.226,0,0,1-4.136-2.3,5.784,5.784,0,0,1-1.693-2.283,10.679,10.679,0,0,1-.469-3.092,30.015,30.015,0,0,0-.222-3.345,9.221,9.221,0,0,0-1.245-3.331c-1.206-2.148-3.218-4.186-3.856-7.1-.691-2.864-.166-5.955.333-9.06s.981-6.475-.186-9.712c-1.091-3.239-3.341-6.171-4.454-9.822-1.108-3.687-.559-7.643-.775-11.549a15.322,15.322,0,0,0-1.315-5.748c-.826-1.834-1.976-3.567-2.871-5.5-1.813-3.9-2.111-8.32-2.589-12.648q-.348-3.271-.7-6.61a32.284,32.284,0,0,0-1.111-6.617,58.5,58.5,0,0,0-2.436-6.412,21.252,21.252,0,0,1-1.181-3.348,33.6,33.6,0,0,1-.313-3.557,41.861,41.861,0,0,1,.315-7.154c.295-2.384.739-4.746,1.009-7.135.016-.141.033-.283.048-.412l.057-.476.422.214a15.97,15.97,0,0,1,5.538,4.728,25.348,25.348,0,0,1,3.383,6.32c1.7,4.451,2.3,9.109,3.142,13.555.824,4.446,1.92,8.822,4.176,12.526,1.123,1.848,2.484,3.536,3.673,5.339a14.6,14.6,0,0,1,2.531,5.906c.587,4.376-1.844,8.2-1.364,12.078a13.4,13.4,0,0,0,1.855,5.375c.929,1.657,2.024,3.2,3.062,4.741a30.379,30.379,0,0,1,2.748,4.784,15.12,15.12,0,0,1,1.24,5.19c.233,3.487-.281,6.791-.044,9.915a22.825,22.825,0,0,0,2.5,8.51c1.236,2.55,2.614,4.858,3.766,7.1a36.122,36.122,0,0,1,1.549,3.3,16.181,16.181,0,0,1,.889,3.273,20.667,20.667,0,0,1,.043,5.9,14.865,14.865,0,0,1-3,7.507,7.094,7.094,0,0,1-.841.9,4.1,4.1,0,0,1-.682.572c-.387.282-.594.411-.594.411a13.007,13.007,0,0,0,2.013-1.968,14.965,14.965,0,0,0,2.849-7.457,20.537,20.537,0,0,0-.1-5.816,16,16,0,0,0-.9-3.2c-.434-1.069-.974-2.154-1.558-3.259-1.162-2.217-2.555-4.516-3.817-7.082a23.193,23.193,0,0,1-2.591-8.661c-.254-3.19.245-6.506,0-9.911a14.59,14.59,0,0,0-1.218-5.015,29.846,29.846,0,0,0-2.716-4.69c-1.038-1.535-2.145-3.078-3.1-4.77a13.984,13.984,0,0,1-1.941-5.6c-.474-4.127,1.939-7.979,1.34-12.048a14.024,14.024,0,0,0-2.446-5.649c-1.17-1.769-2.538-3.46-3.694-5.353-2.328-3.812-3.441-8.271-4.274-12.735-.853-4.474-1.45-9.083-3.121-13.442a24.7,24.7,0,0,0-3.295-6.154,15.293,15.293,0,0,0-5.3-4.533l.478-.261-.049.416c-.274,2.418-.719,4.785-1.01,7.141a41.234,41.234,0,0,0-.314,7.045,33.582,33.582,0,0,0,.3,3.45,20.721,20.721,0,0,0,1.142,3.229,59,59,0,0,1,2.455,6.483,32.873,32.873,0,0,1,1.125,6.727q.353,3.339.7,6.614c.469,4.347.768,8.691,2.514,12.46.862,1.877,2.011,3.614,2.861,5.508a15.915,15.915,0,0,1,1.352,5.96c.2,3.991-.339,7.887.72,11.427,1.052,3.523,3.29,6.47,4.411,9.812,1.2,3.378.675,6.865.164,9.953-.517,3.109-1.035,6.136-.385,8.888.582,2.78,2.536,4.8,3.767,7.009a9.557,9.557,0,0,1,1.263,3.464,30.043,30.043,0,0,1,.2,3.385,10.508,10.508,0,0,0,.424,3.007,5.54,5.54,0,0,0,1.591,2.185,14.2,14.2,0,0,0,4.036,2.306,17.787,17.787,0,0,0,3.307.917,13.276,13.276,0,0,0,2.1.216C72.31,445.1,72.557,445.111,72.557,445.111Z" fill="#263238"/><path d="M40.587,323.147a1.225,1.225,0,0,1,.1.313c.059.248.133.554.223.932.2.815.434,2.046.816,3.583s1.325,3.272,2.114,5.412c.822,2.123,1.654,4.583,2.416,7.346s1.454,5.826,2.166,9.11a38.312,38.312,0,0,0,3.252,10.114c.838,1.684,1.782,3.389,2.529,5.252a24.434,24.434,0,0,1,1.455,5.94,119.959,119.959,0,0,0,2.157,12.519c2.025,8.483,3.953,16.562,5.709,23.919,1.8,7.332,3.421,13.939,4.788,19.509,1.33,5.519,2.41,10,3.172,13.166.351,1.517.628,2.716.83,3.588.081.379.146.688.2.937a1.183,1.183,0,0,1,.046.324,1.22,1.22,0,0,1-.111-.308c-.071-.245-.157-.548-.264-.921l-.951-3.558L67.855,427.21c-1.407-5.56-3.075-12.156-4.927-19.475L57.164,383.81a118.425,118.425,0,0,1-2.153-12.57,23.811,23.811,0,0,0-1.4-5.8c-.72-1.816-1.649-3.512-2.487-5.214a38.5,38.5,0,0,1-3.242-10.27c-.689-3.292-1.341-6.348-2.081-9.1s-1.525-5.213-2.31-7.339c-.748-2.132-1.646-3.891-2.017-5.475-.35-1.576-.54-2.794-.7-3.624l-.158-.945A1.231,1.231,0,0,1,40.587,323.147Z" fill="#263238"/><path d="M70.733,445.133c-6.729-4.052-8.6-16.245-5.74-23.561s7.826-13.988,8.631-21.8c.618-6.007-1.315-12.186.118-18.051,1.934-7.917,9.708-14.013,9.665-22.162-.024-4.572-2.6-8.888-2.368-13.455.286-5.6,4.612-10.021,7.3-14.941,4.119-7.531,4.438-16.461,5.88-24.923s4.722-17.515,12.252-21.635c1.068,7.2,2.933,12.133,2.283,21.872-.234,3.5-4.336,10.172-4.932,17.836-.357,4.581-.612,9.169-.918,13.754-.3,4.461-.613,9-2.236,13.17-1.244,3.193-3.23,6.089-4.159,9.387-1.748,6.205.464,12.949-.955,19.237-1.2,5.328-4.92,9.9-5.705,15.3-1.1,7.594,3.771,15.519,1.212,22.754-1.27,3.59-4.245,6.462-5.106,10.171-.668,2.879.025,5.934-.581,8.826-.977,4.659-9.895,8.231-14.644,7.916" fill="#e8505b"/><path d="M104.573,291.732a1.906,1.906,0,0,1-.032.406c-.041.3-.093.691-.159,1.181-.161,1.037-.344,2.561-.706,4.531-.388,1.981-1.422,4.208-2.254,6.895-.877,2.678-1.752,5.769-2.529,9.231s-1.457,7.291-2.157,11.414c-.723,4.092-1.463,8.614-3.534,12.9-.96,2.153-2.035,4.307-2.845,6.6a29.774,29.774,0,0,0-1.466,7.288A147.166,147.166,0,0,1,86.822,367.9c-2.129,10.643-4.156,20.781-6,30.008l-5.165,24.44c-1.486,6.919-2.693,12.533-3.537,16.465-.425,1.907-.758,3.4-1,4.47-.114.48-.205.862-.275,1.158a1.908,1.908,0,0,1-.116.391,1.748,1.748,0,0,1,.049-.4c.054-.3.123-.687.211-1.173.208-1.071.5-2.577.872-4.495.8-3.942,1.932-9.57,3.332-16.508,1.433-6.978,3.135-15.268,5.025-24.469,1.828-9.225,3.837-19.359,5.946-30a148.948,148.948,0,0,0,2.076-15.666,30.225,30.225,0,0,1,1.515-7.434c.835-2.346,1.925-4.509,2.884-6.644,2.059-4.221,2.8-8.637,3.551-12.744.723-4.115,1.418-7.956,2.241-11.423s1.72-6.566,2.634-9.244c.873-2.7,1.939-4.9,2.355-6.833.4-1.934.624-3.473.826-4.5.093-.485.167-.871.224-1.17A1.776,1.776,0,0,1,104.573,291.732Z" fill="#263238"/><rect width="6.969" height="22.517" transform="translate(402.469 287.759)" fill="#e8505b"/><rect width="6.97" height="31.784" transform="translate(415.298 278.492)" fill="#e8505b"/><rect width="6.97" height="36.112" transform="translate(428.952 274.164)" fill="#e8505b"/><rect width="6.969" height="40.677" transform="translate(442.606 269.599)" fill="#e8505b"/><path d="M167.519,316.972a4.789,4.789,0,0,1,1.5.469A6.309,6.309,0,0,1,172,320.463a6.39,6.39,0,0,1,.61,2.919,6.5,6.5,0,0,1-1,3.272,6.487,6.487,0,0,1-2.867,2.463,6.466,6.466,0,0,1-7.514-1.685,6.492,6.492,0,0,1-1.541-3.452,6.5,6.5,0,0,1,.49-3.388,6.4,6.4,0,0,1,1.8-2.379,6.316,6.316,0,0,1,3.99-1.457,4.824,4.824,0,0,1,1.555.216c-.007.045-.554-.11-1.551-.074a6.315,6.315,0,0,0-3.828,1.512,6.186,6.186,0,0,0-2.121,5.527,6.2,6.2,0,0,0,1.476,3.261,6.139,6.139,0,0,0,7.1,1.593,6.193,6.193,0,0,0,2.727-2.318,6.193,6.193,0,0,0,.444-5.9,6.318,6.318,0,0,0-2.816-3C168.067,317.109,167.506,317.016,167.519,316.972Z" fill="#263238"/><path d="M172.6,310.191a1.446,1.446,0,0,1-.014-.223c0-.166-.009-.388-.015-.675-.009-.62-.021-1.512-.037-2.671l.045.056-5.771-1.259.1-.05-1.518,3.229-.027.058-.065,0a14.452,14.452,0,0,0-3.762.668l-.069.022-.051-.051-2.538-2.512.161.017-4.981,3.173.058-.169c.372,1.04.783,2.186,1.2,3.361l.03.086-.062.066a14.425,14.425,0,0,0-2.189,3.119l-.043.084h-.1l-3.568.012.158-.126c-.4,1.81-.839,3.763-1.286,5.765l-.092-.19,3.224,1.528.1.044,0,.1a14.4,14.4,0,0,0,.656,3.747l.032.1-.076.076-2.517,2.531.024-.221,3.163,4.988-.213-.073,3.363-1.2.1-.036.081.074a14.291,14.291,0,0,0,3.1,2.188h0c.044.072-.1-.161.1.161v.895l0,.894q0,.894,0,1.78l-.142-.177,5.764,1.294-.2.1,1.532-3.223.047-.1.107,0a14.318,14.318,0,0,0,3.748-.65l.1-.032.076.075,2.528,2.521-.215-.024,4.992-3.156-.068.2q-.608-1.713-1.193-3.365l-.034-.094.068-.072a14.355,14.355,0,0,0,2.2-3.109l.044-.085h.1l3.568,0-.147.118c.459-2.026.893-3.939,1.3-5.761l.076.157-3.22-1.539-.071-.034,0-.079a14.4,14.4,0,0,0-.645-3.763l-.021-.069.051-.051,2.527-2.522-.015.134-3.139-5,.1.033-3.37,1.176-.034.012-.026-.024a15.035,15.035,0,0,0-2.292-1.766l-.614-.37a1.656,1.656,0,0,1-.2-.124,1.529,1.529,0,0,1,.217.1c.141.072.354.182.63.345a14.022,14.022,0,0,1,2.341,1.731l-.06-.012,3.356-1.219.061-.022.035.055,3.183,4.976.046.072-.061.061-2.51,2.538.029-.12a14.59,14.59,0,0,1,.678,3.825l-.075-.113,3.228,1.523.1.048-.024.108c-.4,1.823-.831,3.738-1.282,5.766l-.026.118h-.121l-3.568.014.139-.084a14.669,14.669,0,0,1-2.238,3.186l.034-.165q.589,1.65,1.2,3.361l.045.126-.113.072-4.986,3.166-.116.074-.1-.1-2.532-2.516.177.043a14.676,14.676,0,0,1-3.84.67l.154-.1q-.756,1.6-1.529,3.225l-.061.13-.141-.032-5.764-1.291-.142-.031v-.146l0-1.779,0-.895V336c.2.321.054.089.1.16h0a14.676,14.676,0,0,1-3.184-2.244l.184.038-3.364,1.2-.136.049-.077-.122-3.159-4.991-.076-.121.1-.1,2.521-2.529-.043.177a14.726,14.726,0,0,1-.665-3.839l.1.149-3.222-1.534-.122-.059.03-.131c.451-2,.891-3.952,1.3-5.762l.028-.127h.129l3.569,0-.139.084a14.659,14.659,0,0,1,2.247-3.178l-.031.153c-.416-1.177-.823-2.324-1.191-3.366l-.038-.108.1-.061,5-3.15.088-.055.073.073c.886.886,1.737,1.739,2.523,2.526l-.12-.029a14.6,14.6,0,0,1,3.826-.653l-.092.061,1.543-3.217.032-.067.072.016,5.755,1.326.046.011v.046c-.011,1.148-.019,2.033-.025,2.647-.005.291-.009.516-.012.684A1.77,1.77,0,0,1,172.6,310.191Z" fill="#263238"/><path d="M161.718,265.331a16.03,16.03,0,0,1,3.48,2.451l3.718-1.324,3.494,5.516-2.784,2.8a16,16,0,0,1,.73,4.2l3.564,1.692-1.429,6.371-3.945.009a15.956,15.956,0,0,1-2.453,3.48l1.324,3.719-5.515,3.494-2.8-2.784a16,16,0,0,1-4.195.729l-1.692,3.564-6.372-1.429-.008-3.945a15.951,15.951,0,0,1-3.48-2.452l-3.719,1.324-3.5-5.516,2.786-2.8a16.036,16.036,0,0,1-.731-4.194l-3.563-1.692,1.429-6.372,3.945-.009a15.975,15.975,0,0,1,2.452-3.48l-1.324-3.718,5.516-3.495,2.8,2.785a15.994,15.994,0,0,1,4.194-.73l1.692-3.564,6.372,1.429.009,3.946Zm-5.618,7.5a7,7,0,1,0,5.3,8.369A7.005,7.005,0,0,0,156.1,272.828Z" fill="#e8505b" fill-rule="evenodd"/><g opacity="0.8"><path d="M161.718,265.331a16.03,16.03,0,0,1,3.48,2.451l3.718-1.324,3.494,5.516-2.784,2.8a16,16,0,0,1,.73,4.2l3.564,1.692-1.429,6.371-3.945.009a15.956,15.956,0,0,1-2.453,3.48l1.324,3.719-5.515,3.494-2.8-2.784a16,16,0,0,1-4.195.729l-1.692,3.564-6.372-1.429-.008-3.945a15.951,15.951,0,0,1-3.48-2.452l-3.719,1.324-3.5-5.516,2.786-2.8a16.036,16.036,0,0,1-.731-4.194l-3.563-1.692,1.429-6.372,3.945-.009a15.975,15.975,0,0,1,2.452-3.48l-1.324-3.718,5.516-3.495,2.8,2.785a15.994,15.994,0,0,1,4.194-.73l1.692-3.564,6.372,1.429.009,3.946Zm-5.618,7.5a7,7,0,1,0,5.3,8.369A7.005,7.005,0,0,0,156.1,272.828Z" fill="#fff" fill-rule="evenodd"/></g><path d="M138.678,302.865a9.348,9.348,0,0,1,2.026,1.427l2.164-.77,2.034,3.211-1.621,1.628a9.319,9.319,0,0,1,.426,2.441l2.074.986-.832,3.709-2.3.005a9.29,9.29,0,0,1-1.427,2.026l.771,2.164-3.211,2.035-1.628-1.621a9.332,9.332,0,0,1-2.442.425l-.985,2.074-3.71-.832,0-2.3a9.294,9.294,0,0,1-2.026-1.428l-2.165.771-2.034-3.211,1.621-1.628a9.324,9.324,0,0,1-.425-2.442l-2.074-.985.831-3.709,2.3-.005a9.29,9.29,0,0,1,1.427-2.026l-.77-2.165,3.21-2.034,1.629,1.621a9.318,9.318,0,0,1,2.441-.425l.986-2.074,3.708.832.006,2.3Zm-3.27,4.365a4.078,4.078,0,1,0,3.086,4.871A4.078,4.078,0,0,0,135.408,307.23Z" fill="#e8505b" fill-rule="evenodd"/><g opacity="0.4"><path d="M138.678,302.865a9.348,9.348,0,0,1,2.026,1.427l2.164-.77,2.034,3.211-1.621,1.628a9.319,9.319,0,0,1,.426,2.441l2.074.986-.832,3.709-2.3.005a9.29,9.29,0,0,1-1.427,2.026l.771,2.164-3.211,2.035-1.628-1.621a9.332,9.332,0,0,1-2.442.425l-.985,2.074-3.71-.832,0-2.3a9.294,9.294,0,0,1-2.026-1.428l-2.165.771-2.034-3.211,1.621-1.628a9.324,9.324,0,0,1-.425-2.442l-2.074-.985.831-3.709,2.3-.005a9.29,9.29,0,0,1,1.427-2.026l-.77-2.165,3.21-2.034,1.629,1.621a9.318,9.318,0,0,1,2.441-.425l.986-2.074,3.708.832.006,2.3Zm-3.27,4.365a4.078,4.078,0,1,0,3.086,4.871A4.078,4.078,0,0,0,135.408,307.23Z" fill="#fff" fill-rule="evenodd"/></g><path d="M359.533,266.065a9.765,9.765,0,0,0,7.064-9.745c-.122-1.957-.85-3.861-.766-5.82.13-3.041,2.148-5.611,3.666-8.248s2.537-6.116.767-8.592c-1.148-1.606-3.175-2.33-4.565-3.731-1.361-1.372-2.007-3.273-2.736-5.062s-1.674-3.636-3.353-4.592-4.254-.531-4.936,1.277" fill="#263238"/><path d="M341.367,216.736c2.995-1.9,3.719-6.313,2.1-9.468s-5.068-5.071-8.571-5.636a16.331,16.331,0,0,0-14.07,4.662c-1.933,1.991-3.5,4.588-6.12,5.5-2.3.8-4.854.078-7.273.392a10.974,10.974,0,0,0-7.686,5.542,23.684,23.684,0,0,0-2.733,9.347c-.353,2.981-.586,6.252-2.654,8.427-2.016,2.122-5.2,2.571-7.71,4.08A10.554,10.554,0,0,0,283.511,254c.993,1.448,2.418,2.776,2.533,4.528.1,1.6-.929,3.024-1.413,4.552a7.122,7.122,0,0,0,6.094,8.845c2.08.12,4.309-.691,6.174.239s2.541,3.157,3.726,4.854a8.906,8.906,0,0,0,10.86,2.8c1.53-.75,2.975-1.989,4.675-1.874s3.033,1.563,4.7,1.886c2.186.423,4.262-1.187,5.561-2.995s2.206-3.937,3.869-5.416c2.178-1.937,5.238-2.416,7.994-3.365a22.55,22.55,0,0,0,12.734-31.589" fill="#263238"/><path d="M347.947,220.67a4.79,4.79,0,0,1,4.274,4.866h0l-2.857,64.672c-.12,7.638-11.285,11.93-19.462,11.74h0c-8.258-.192-8.525-4.242-8.628-11.509-.172-12.14-.158-16.7-.162-16.628,0,0-10.432-1.756-12.564-15.376-1.06-6.773-.7-17.874-.1-26.947.532-8.167,5.966-18.177,14.1-17.3Z" fill="#ffbe9d"/><path d="M311.441,240.3a1.746,1.746,0,0,0,1.68,1.766,1.67,1.67,0,0,0,1.8-1.571,1.747,1.747,0,0,0-1.678-1.766A1.671,1.671,0,0,0,311.441,240.3Z" fill="#263238"/><path d="M310.84,237.268c.216.228,1.541-.748,3.42-.739,1.877-.017,3.254.952,3.458.723.1-.1-.119-.513-.719-.952a4.794,4.794,0,0,0-2.767-.86,4.6,4.6,0,0,0-2.723.873C310.93,236.755,310.734,237.166,310.84,237.268Z" fill="#263238"/><path d="M330.17,240.3a1.746,1.746,0,0,0,1.68,1.766,1.67,1.67,0,0,0,1.8-1.571,1.747,1.747,0,0,0-1.678-1.766A1.671,1.671,0,0,0,330.17,240.3Z" fill="#263238"/><path d="M329.308,237.66c.217.228,1.543-.748,3.421-.739,1.877-.018,3.254.952,3.458.722.1-.1-.117-.513-.719-.951a4.789,4.789,0,0,0-2.767-.86,4.6,4.6,0,0,0-2.723.872C329.4,237.146,329.2,237.557,329.308,237.66Z" fill="#263238"/><path d="M322.459,251.579a12.436,12.436,0,0,0-3.051-.557c-.48-.051-.933-.147-1.014-.475a2.443,2.443,0,0,1,.324-1.421q.681-1.74,1.427-3.651c1.982-5.2,3.418-9.471,3.208-9.549s-1.988,4.072-3.969,9.269c-.477,1.282-.934,2.5-1.368,3.672a2.785,2.785,0,0,0-.253,1.883,1.208,1.208,0,0,0,.788.7,3.287,3.287,0,0,0,.814.115A12.2,12.2,0,0,0,322.459,251.579Z" fill="#263238"/><path d="M321.112,273.811a34.63,34.63,0,0,0,18.244-4.824s-4.621,9.6-18.244,8.3Z" fill="#eb996e"/><path d="M323.243,256.109a3.387,3.387,0,0,1,3.038-1.251,3.094,3.094,0,0,1,2.132,1.15,1.958,1.958,0,0,1,.144,2.24,2.271,2.271,0,0,1-2.464.617,7.108,7.108,0,0,1-2.4-1.438,2.081,2.081,0,0,1-.535-.557.627.627,0,0,1,0-.7" fill="#e8505b"/><path d="M327.985,252.891c-.3-.018-.314,2.021-2.063,3.465s-3.919,1.214-3.935,1.5c-.029.128.483.4,1.4.425a5.079,5.079,0,0,0,3.286-1.137,4.425,4.425,0,0,0,1.6-2.9C328.351,253.385,328.125,252.88,327.985,252.891Z" fill="#263238"/><path d="M328.471,234.368c.184.511,2.06.273,4.264.544,2.21.226,3.986.876,4.279.418.131-.219-.178-.7-.9-1.2a7.47,7.47,0,0,0-6.509-.733C328.8,233.725,328.391,234.125,328.471,234.368Z" fill="#263238"/><path d="M311.543,231.832c.329.427,1.625-.013,3.181-.03,1.556-.072,2.874.293,3.179-.153.133-.216-.074-.644-.649-1.049a4.607,4.607,0,0,0-5.124.147C311.579,231.184,311.4,231.623,311.543,231.832Z" fill="#263238"/><path d="M339.01,216.242a13.218,13.218,0,0,1,10.792-2.021c3.632,1.043,6.642,4.316,6.765,8.016.079,2.4-.959,4.962.108,7.131,1.016,2.064,3.519,2.9,5.294,4.4a8.125,8.125,0,0,1,1.881,9.824c-1.486,2.729-4.612,4.73-4.874,7.811-.247,2.9,2.2,5.345,2.791,8.2.657,3.144-1.084,6.4-3.579,8.483s-5.646,3.235-8.727,4.344c-2.4.865-4.977,1.743-7.472,1.177a7.649,7.649,0,0,1-5.6-6.386A10.409,10.409,0,0,1,339.224,259c1.749-1.925,4.2-3.562,4.621-6.1.655-3.959-4.063-7.213-3.772-11.213.15-2.063,1.605-3.771,2.816-5.467s2.267-3.83,1.524-5.767c-.966-2.517-4.274-3.173-6.273-5.019a6.113,6.113,0,0,1-1.67-6.192,6.3,6.3,0,0,1,4.936-4.208" fill="#263238"/><path d="M340.474,213.172a9.315,9.315,0,0,1-10.99,9.2c-2.08-.38-4.359-1.432-6.16-.323-1.894,1.165-1.972,4.02-3.652,5.478-2.4,2.083-6.216.128-9.263,1.032-2.353.7-3.823,2.947-5.386,4.839s-3.9,3.691-6.258,2.993a27.607,27.607,0,0,1,.934-6.278A9.279,9.279,0,0,1,303.264,225a34.611,34.611,0,0,0,3.009-1.751c1.953-1.577,2.406-4.321,3.612-6.523a10.206,10.206,0,0,1,7.777-5.159c2.678-.274,5.438.53,8.049-.129,1.93-.486,3.615-1.739,5.571-2.11,3.807-.724,7.347,2.008,10.107,4.729" fill="#263238"/><path d="M365.343,245.719a2.954,2.954,0,0,0,.3-1.57,3.953,3.953,0,0,0-2.741-3.132,20.238,20.238,0,0,0-2.993-.806,8.76,8.76,0,0,1-3.39-1.4,4.776,4.776,0,0,1-1.764-3.642,38.432,38.432,0,0,1,.21-4.287,9.8,9.8,0,0,0-.107-2.1,4.472,4.472,0,0,0-.8-1.787,6.84,6.84,0,0,0-3.278-1.881,14.76,14.76,0,0,1-3.338-1.439,11.748,11.748,0,0,1-4.865-5.889,7.942,7.942,0,0,1-.349-1.192,1.349,1.349,0,0,1-.061-.429c.047-.013.182.568.6,1.546a12.118,12.118,0,0,0,2.483,3.7,12.288,12.288,0,0,0,5.685,3.249,7.23,7.23,0,0,1,3.522,2.015,4.956,4.956,0,0,1,.914,2.008,10.185,10.185,0,0,1,.119,2.22,40.486,40.486,0,0,0-.221,4.228,4.3,4.3,0,0,0,1.55,3.3,8.473,8.473,0,0,0,3.195,1.355,19.53,19.53,0,0,1,3.034.886,4.783,4.783,0,0,1,2.11,1.584,3.623,3.623,0,0,1,.692,1.871,2.377,2.377,0,0,1-.246,1.234A.957.957,0,0,1,365.343,245.719Z" fill="#455a64"/><path d="M285.146,254.216a.862.862,0,0,1-.223-.105,1.51,1.51,0,0,1-.511-.515,2.75,2.75,0,0,1,.278-2.689,3.58,3.58,0,0,1,1.458-1.4,18.766,18.766,0,0,1,2.189-.924,6.753,6.753,0,0,0,2.29-1.3,4.9,4.9,0,0,0,1.308-2.582c.23-1.023.3-2.139.482-3.3a7.247,7.247,0,0,1,1.351-3.432c1.586-2.09,4.184-3.2,6.123-5.159a9.432,9.432,0,0,0,2.127-3.606,24.82,24.82,0,0,0,.963-4.36c.421-2.991.845-6.343,2.859-9.08a6.633,6.633,0,0,1,4.108-2.654,14.412,14.412,0,0,1,4.741.119,17.216,17.216,0,0,0,4.43.259,5.766,5.766,0,0,0,3.62-1.869c1.858-2,2.926-4.7,5.21-6.084a8.7,8.7,0,0,1,6.878-.948,7.626,7.626,0,0,1,4.528,3.519,8.572,8.572,0,0,1,1.176,4.2,7.373,7.373,0,0,1-.435,2.724,4.563,4.563,0,0,1-.4.873c-.026-.012.12-.31.3-.906a7.737,7.737,0,0,0,.332-2.685,8.463,8.463,0,0,0-1.223-4.055,7.336,7.336,0,0,0-4.377-3.314,8.342,8.342,0,0,0-6.548.957,9.575,9.575,0,0,0-2.627,2.712,30.325,30.325,0,0,1-2.466,3.338,6.78,6.78,0,0,1-1.739,1.362,6.445,6.445,0,0,1-2.165.67,17.575,17.575,0,0,1-4.563-.247,14.041,14.041,0,0,0-4.571-.116,6.113,6.113,0,0,0-3.793,2.46,12.6,12.6,0,0,0-1.946,4.268,41.974,41.974,0,0,0-.825,4.575,25.121,25.121,0,0,1-1,4.445,9.9,9.9,0,0,1-2.254,3.78c-2.053,2.034-4.626,3.12-6.122,5.085a6.825,6.825,0,0,0-1.3,3.236c-.193,1.134-.271,2.258-.52,3.317a5.231,5.231,0,0,1-1.439,2.741,7,7,0,0,1-2.415,1.33,19.053,19.053,0,0,0-2.176.87,3.392,3.392,0,0,0-1.4,1.281,2.665,2.665,0,0,0-.359,2.534A2.215,2.215,0,0,0,285.146,254.216Z" fill="#455a64"/><path d="M251.735,347.951l24.152-2.214s14.863-39.146,33.185-48.639l11.868,20.731-25.4,47.735H245.929Z" fill="#e8505b"/><path d="M251.735,347.951l24.152-2.214s14.863-39.146,33.185-48.639l11.868,20.731-25.4,47.735H245.929Z" opacity="0.3"/><path d="M261.278,359.006a37.244,37.244,0,0,1,4.518-7.556,37.369,37.369,0,0,1-4.518,7.556Z" fill="#fafafa"/><path d="M278.389,358.532a37.031,37.031,0,0,1-5.5-6.837,37.121,37.121,0,0,1,5.5,6.837Z" fill="#fafafa"/><path d="M281.36,349.555a19.414,19.414,0,0,1,0-6.333,19.411,19.411,0,0,1,0,6.333Z" fill="#fafafa"/><path d="M272.86,363.555a6.651,6.651,0,0,1-2.309-1.2c-1.2-.782-2.1-1.514-2.024-1.634a6.648,6.648,0,0,1,2.309,1.2C272.032,362.7,272.939,363.435,272.86,363.555Z" fill="#fafafa"/><path d="M286.727,327.57a41.848,41.848,0,0,1-3.812,8.51,41.93,41.93,0,0,1,3.812-8.51Z" fill="#fafafa"/><path d="M296.516,311.707c.087.115-.777.915-1.928,1.788a6.791,6.791,0,0,1-2.243,1.373c-.087-.114.776-.915,1.928-1.788A6.832,6.832,0,0,1,296.516,311.707Z" fill="#fafafa"/><path d="M332.641,362.469,345.1,312.162a17.113,17.113,0,0,1,19.647-12.729h0A17.112,17.112,0,0,1,378.618,318.9l-7.626,49.168a24.6,24.6,0,0,1-20.41,19.9l-9.9,1.545Z" fill="#e8505b"/><path d="M371.895,296.183a11.242,11.242,0,0,0-4.443-2.233,11.845,11.845,0,0,0-5.361.037,14.544,14.544,0,0,0-5.828,3.039c-3.651,3.06-5.637,7.036-6.987,9.821-.667,1.415-1.175,2.578-1.538,3.377a6.946,6.946,0,0,1-.608,1.223,6.763,6.763,0,0,1,.421-1.3c.3-.824.762-2.01,1.39-3.453a37.372,37.372,0,0,1,2.561-4.909,21.838,21.838,0,0,1,4.428-5.16,14.658,14.658,0,0,1,6.052-3.106,11.853,11.853,0,0,1,5.558.073,9.463,9.463,0,0,1,3.375,1.63,6.371,6.371,0,0,1,.756.684C371.831,296.076,371.908,296.17,371.895,296.183Z" fill="#263238"/><path d="M301.329,307.5a2.409,2.409,0,0,1-.348.467l-1.066,1.276c-.921,1.109-2.237,2.731-3.737,4.826a51.436,51.436,0,0,0-8.5,18.053c-1.737,7.671-1.823,14.855-2.118,20-.124,2.58-.245,4.668-.356,6.109-.06.674-.108,1.222-.147,1.658a2.473,2.473,0,0,1-.087.576,2.4,2.4,0,0,1-.017-.582c.012-.437.029-.988.049-1.663.047-1.514.112-3.585.19-6.113.2-5.145.225-12.355,1.979-20.1a49.709,49.709,0,0,1,8.714-18.153c1.546-2.078,2.91-3.67,3.881-4.742.481-.54.878-.939,1.141-1.214A2.458,2.458,0,0,1,301.329,307.5Z" fill="#263238"/><path d="M381.15,307.394c-1.366-9-6.335-11.155-11.48-13.956-1.683-.915-9.793-3-16.223-4.565-.614-3.9-1.715-10.87-1.957-12.343-.339-2.068-32.756,3.1-33.166,3.879-.273.514-1.019,8.592-1.491,13.976l-7.761,2.713-10.13,12.879-5.272,7.487a40.348,40.348,0,0,0-6.53,14.373,78.455,78.455,0,0,0-1.453,17.42l-1.566,33.026,67.826,19.179,5.251-33.455,17.5-23.819C376.19,334.555,382.831,318.455,381.15,307.394Z" fill="#e8505b"/><path d="M323.263,295.424a10.493,10.493,0,0,1-.451-2.291c-.212-1.424-.47-3.394-.723-5.574q-.176-1.618-.336-3.076a21.611,21.611,0,0,1-.179-2.543,3.052,3.052,0,0,1,.483-1.69c.262-.34.486-.432.5-.41s-.145.182-.328.518a3.254,3.254,0,0,0-.287,1.585c.018.693.174,1.539.288,2.485.119.968.245,1.994.377,3.071.252,2.18.452,4.157.571,5.591A10.431,10.431,0,0,1,323.263,295.424Z" fill="#263238"/><path d="M331.911,293.38a7.838,7.838,0,0,1-.721-2.1,33.568,33.568,0,0,1-.981-10.621,7.892,7.892,0,0,1,.325-2.194c.161.013-.133,3.376.259,7.5C331.162,290.085,332.067,293.338,331.911,293.38Z" fill="#263238"/><path d="M348.006,291.041a25.505,25.505,0,0,0-2.521-14.546,6.74,6.74,0,0,1,1.188,1.882,18.941,18.941,0,0,1,1.819,10.491A6.734,6.734,0,0,1,348.006,291.041Z" fill="#263238"/><path d="M301.949,320.456a31.141,31.141,0,0,1,5.948-7.929,99.178,99.178,0,0,1-5.948,7.929Z" fill="#fafafa"/><path d="M317.226,308.03a32.37,32.37,0,0,1-4.98-6.515,32.447,32.447,0,0,1,4.98,6.515Z" fill="#fafafa"/><path d="M333.193,300.222a120.852,120.852,0,0,1-6.5,6.333,23.832,23.832,0,0,1,6.5-6.333Z" fill="#fafafa"/><path d="M328.709,290.7a18.934,18.934,0,0,1-4.637-4.2,18.934,18.934,0,0,1,4.637,4.2Z" fill="#fafafa"/><path d="M342.7,283.243a23.637,23.637,0,0,1-6.841,1.465,23.549,23.549,0,0,1,6.841-1.465Z" fill="#fafafa"/><path d="M345.5,305.39a23.709,23.709,0,0,1-.354-7,23.712,23.712,0,0,1,.354,7Z" fill="#fafafa"/><path d="M340.395,316.042a37.287,37.287,0,0,1-3.013-8.268,37.332,37.332,0,0,1,3.013,8.268Z" fill="#fafafa"/><path d="M326.54,323.55a41.539,41.539,0,0,1-3.363-8.655,41.395,41.395,0,0,1,3.363,8.655Z" fill="#fafafa"/><path d="M313.5,332.061a36.079,36.079,0,0,1-1.737-8.485,36.215,36.215,0,0,1,1.737,8.485Z" fill="#fafafa"/><path d="M298,332.4a34.814,34.814,0,0,1-3.722-7.64A34.816,34.816,0,0,1,298,332.4Z" fill="#fafafa"/><path d="M297.667,342.335a41.709,41.709,0,0,1-8.353,4.126,41.853,41.853,0,0,1,8.353-4.126Z" fill="#fafafa"/><path d="M297.86,358.055a17.875,17.875,0,0,1-2-7.5,79.254,79.254,0,0,1,2,7.5Z" fill="#fafafa"/><path d="M294.655,369.1a33.742,33.742,0,0,1-6.179-5.654,33.841,33.841,0,0,1,6.179,5.654Z" fill="#fafafa"/><path d="M315.072,361.563c.038.149-2.258.805-4.938,1.987s-4.726,2.413-4.81,2.283a21.1,21.1,0,0,1,9.748-4.27Z" fill="#fafafa"/><path d="M309.1,356.087a26.659,26.659,0,0,1-2.445-7.019,26.6,26.6,0,0,1,2.445,7.019Z" fill="#fafafa"/><path d="M321.214,342.568a59.256,59.256,0,0,1-5.916,9.386,59.262,59.262,0,0,1,5.916-9.386Z" fill="#fafafa"/><path d="M334.225,343.865a30.815,30.815,0,0,1-5.765-9.611c.136-.064,1.3,2.158,2.889,4.8S334.346,343.775,334.225,343.865Z" fill="#fafafa"/><path d="M342.021,331.023a15.362,15.362,0,0,1-7.662.38,216.155,216.155,0,0,1,7.662-.38Z" fill="#fafafa"/><path d="M360.529,316.392A59.419,59.419,0,0,1,350.5,321.17a59.318,59.318,0,0,1,10.027-4.778Z" fill="#fafafa"/><path d="M361.76,307.088a38.513,38.513,0,0,1,3.973-8.013,38.648,38.648,0,0,1-3.973,8.013Z" fill="#fafafa"/><path d="M373.523,314.389A32.866,32.866,0,0,1,372,309.84a32.826,32.826,0,0,1-1.345-4.605,26.988,26.988,0,0,1,2.864,9.154Z" fill="#fafafa"/><path d="M375.365,324.07a23.492,23.492,0,0,1-9.007,2.308,190.878,190.878,0,0,1,9.007-2.308Z" fill="#fafafa"/><path d="M355.213,335.892c-.151-.03.278-2.464.4-5.494s-.084-5.49.069-5.508a22.452,22.452,0,0,1-.468,11Z" fill="#fafafa"/><path d="M351.193,348.055a24.665,24.665,0,0,1-6.5-7.833c.127-.083,1.45,1.771,3.243,3.923S351.3,347.946,351.193,348.055Z" fill="#fafafa"/><path d="M371.4,345.495a41.36,41.36,0,0,1-8.541,3.567,41.214,41.214,0,0,1,8.541-3.567Z" fill="#fafafa"/><path d="M364.163,368.388a58.082,58.082,0,0,1,.11-11,58.306,58.306,0,0,1-.11,11Z" fill="#fafafa"/><path d="M348.647,367.074a31.857,31.857,0,0,1,2.773-11.056c.141.05-.62,2.484-1.379,5.53S348.8,367.1,348.647,367.074Z" fill="#fafafa"/><path d="M349.362,373.081c.008.15-2.485.389-5.524.9s-5.478,1.073-5.519.928a29.393,29.393,0,0,1,11.043-1.823Z" fill="#fafafa"/><path d="M332.2,369.229a39.683,39.683,0,0,1,6.305-6.527,39.58,39.58,0,0,1-6.305,6.527Z" fill="#fafafa"/><path d="M321.087,380.043a36.483,36.483,0,0,1-1.351-3.913,36.441,36.441,0,0,1-1.4-3.9,15.985,15.985,0,0,1,2.749,7.81Z" fill="#fafafa"/><path d="M339.027,386.222a55.535,55.535,0,0,1-9.822-4.36,55.535,55.535,0,0,1,9.822,4.36Z" fill="#fafafa"/><path d="M307.756,384.409a27.432,27.432,0,0,1,2.376-7.153,27.4,27.4,0,0,1-2.376,7.153Z" fill="#fafafa"/><path d="M328.359,387.9c-.029.152-2.873-.309-6.409-.49s-6.412-.039-6.424-.193a31.172,31.172,0,0,1,12.833.683Z" fill="#fafafa"/><path d="M332.641,358.408a1.18,1.18,0,0,1-.027-.394,3.709,3.709,0,0,1,.161-1.135,2.511,2.511,0,0,1,1.087-1.488,3.493,3.493,0,0,1,2.441-.4l-.2.119c1.1-3.835,2.843-9.438,4.593-15.716,1.639-5.878,2.744-11.292,3.52-15.217l.916-4.65a11.234,11.234,0,0,1,.4-1.695,11.008,11.008,0,0,1-.2,1.73c-.157,1.109-.412,2.709-.753,4.683a156.541,156.541,0,0,1-3.38,15.287c-1.754,6.3-3.565,11.876-4.762,15.68l-.047.148-.158-.029a3.244,3.244,0,0,0-2.223.3,2.34,2.34,0,0,0-1.049,1.315A13.848,13.848,0,0,0,332.641,358.408Z" fill="#263238"/><path d="M355.064,372.317c-.085.039-.7-1.315-1.972-3.333a34.377,34.377,0,0,0-13.6-12.364c-2.13-1.074-3.537-1.557-3.505-1.646a4.055,4.055,0,0,1,1.013.266,22.524,22.524,0,0,1,2.653,1.048,31.165,31.165,0,0,1,13.758,12.5,22.715,22.715,0,0,1,1.3,2.541A4.041,4.041,0,0,1,355.064,372.317Z" fill="#263238"/><g opacity="0.2"><path d="M336.545,354.238a35.153,35.153,0,0,1,10.546,1.909c3.59,1.345,6.908,3.921,8.228,7.52a2.479,2.479,0,0,1-.187,2.6,1.851,1.851,0,0,1-1.895.3,5.014,5.014,0,0,1-1.656-1.139c-2.2-2.039-4.489-3.84-6.765-5.8s-5.582-4.02-8.551-4.474"/></g><path d="M329.336,347.86a4.631,4.631,0,0,1-1.043.6,18.163,18.163,0,0,1-3.076,1.16,20.544,20.544,0,0,1-20.136-5.229,18.23,18.23,0,0,1-2.123-2.511,4.619,4.619,0,0,1-.618-1.034c.084-.063.994,1.4,3,3.279a21.189,21.189,0,0,0,19.787,5.139C327.784,348.6,329.294,347.765,329.336,347.86Z" fill="#263238"/><g opacity="0.2"><path d="M302.883,341.621c1.683,3.662,3.661,7.346,6.854,9.8a10.994,10.994,0,0,0,6.316,2.647c3.338.055,6.2-2.222,8.752-4.38-8.251,1.292-17.551-2.451-21.922-8.072"/></g><path d="M339.855,292.616c-.159-.009.033-3.434-.379-7.624-.391-4.193-1.229-7.519-1.075-7.558a8.221,8.221,0,0,1,.694,2.145,38.528,38.528,0,0,1,1.034,10.8A8.248,8.248,0,0,1,339.855,292.616Z" fill="#263238"/><path d="M221.237,426.44s-10.869,2.349-20.572.894c-9.1-1.364-29.466.047-29.459,12.037.009,13.372,27.17,10.068,37.768,7.948s21.15-4.04,21.15-4.04Z" fill="#e8505b"/><path d="M196.844,443.571a44.914,44.914,0,0,1-2.118-9.422,44.912,44.912,0,0,1,2.118,9.422Z" fill="#263238"/><path d="M200.551,443.747a45.4,45.4,0,0,1-1.319-9.614,45.425,45.425,0,0,1,1.319,9.614Z" fill="#263238"/><path d="M204.131,442.349a34.437,34.437,0,0,1-1.014-8.4,34.453,34.453,0,0,1,1.014,8.4Z" fill="#263238"/><path d="M209.753,440.947a14.368,14.368,0,0,1-1.8-7.4,1088.283,1088.283,0,0,1,1.8,7.4Z" fill="#263238"/><path d="M210.958,436.059a4.673,4.673,0,0,1,1.42-.1,12.049,12.049,0,0,1,3.816.747,4.247,4.247,0,0,1,1.175.633,1.784,1.784,0,0,1,.736,1.325,2.01,2.01,0,0,1-2.461,1.788,5.062,5.062,0,0,1-2.837-2.02,8.629,8.629,0,0,1-1.605-3.343,8.49,8.49,0,0,1,1.2-6.924,1.38,1.38,0,0,1,.807-.486,1.1,1.1,0,0,1,.9.282,2.431,2.431,0,0,1,.68,1.459,7.42,7.42,0,0,1-.143,2.72,7.554,7.554,0,0,1-1.834,3.429,5.92,5.92,0,0,1-.793.7c-.2.139-.307.2-.318.19-.03-.037.379-.341.959-1.028a7.81,7.81,0,0,0,1.626-3.376,7.182,7.182,0,0,0,.076-2.575,2.027,2.027,0,0,0-.555-1.178.7.7,0,0,0-1.049.175,8.481,8.481,0,0,0,.451,9.637,4.647,4.647,0,0,0,2.52,1.862,1.571,1.571,0,0,0,1.944-1.306,1.378,1.378,0,0,0-.559-1.025,3.939,3.939,0,0,0-1.053-.6,13.24,13.24,0,0,0-3.7-.887C211.465,436.084,210.959,436.1,210.958,436.059Z" fill="#263238"/><path d="M229.049,441.51a1.175,1.175,0,0,1-.274.087l-.815.2-3.151.718c-2.742.6-6.718,1.449-11.658,2.4s-10.843,2.031-17.459,2.932a47.149,47.149,0,0,1-10.49.523,22.539,22.539,0,0,1-5.494-1.05,15.087,15.087,0,0,1-2.637-1.172,8.142,8.142,0,0,1-2.316-1.865l.04.044a5.515,5.515,0,0,1-.945-1.134,7.072,7.072,0,0,1-.553-5.852,9.355,9.355,0,0,1,3.484-4.555,17.709,17.709,0,0,1,4.953-2.454c.867-.246,1.711-.543,2.57-.738.863-.172,1.706-.4,2.557-.519,6.812-1.075,13.008-.529,18.155-.527,2.581.048,4.912-.022,6.955-.147a46.549,46.549,0,0,0,5.2-.658l1.874-.394,1.35-.385.834-.229a1.327,1.327,0,0,1,.29-.062,1.205,1.205,0,0,1-.273.112l-.82.279-1.342.435-1.873.442a43.486,43.486,0,0,1-5.222.75c-2.051.154-4.394.25-6.979.226-5.159.043-11.351-.459-18.073.632-.841.119-1.67.349-2.521.52-.846.195-1.674.491-2.526.734a17.241,17.241,0,0,0-4.809,2.394,8.857,8.857,0,0,0-3.3,4.3,6.571,6.571,0,0,0,.5,5.416,5.02,5.02,0,0,0,.852,1.023l.017.017.023.029a7.8,7.8,0,0,0,2.148,1.713,14.643,14.643,0,0,0,2.542,1.132,22.153,22.153,0,0,0,5.372,1.034,47.09,47.09,0,0,0,10.386-.489c6.6-.872,12.507-1.918,17.454-2.817s8.931-1.7,11.684-2.242l3.17-.623.826-.153A1.263,1.263,0,0,1,229.049,441.51Z" fill="#263238"/><path d="M189.306,447.949a17.979,17.979,0,0,1-.263-2.777c-.123-1.715-.327-4.078-.674-6.674s-.774-4.931-1.106-6.617a17.838,17.838,0,0,1-.477-2.749,12.668,12.668,0,0,1,.836,2.668,61.246,61.246,0,0,1,1.789,13.355A12.64,12.64,0,0,1,189.306,447.949Z" fill="#263238"/><path d="M217.892,427.019l6.887,17.25,5.345-.99L219.888,426.44Z" opacity="0.4"/><path d="M307.651,379.736c-1.108.369-72.282-19.576-101.065-27.669a27.34,27.34,0,0,0-22.259,3.369l-.347.224a27.345,27.345,0,0,0-11.774,29.152h0a27.331,27.331,0,0,0,12.343,17.115c18.981,11.628,59.15,36.092,60.379,35.616,1.609-.624,51.775-1.925,51.775-1.925l-60.351-43.4,28.711,18.556,42.588-31.034Z" fill="#263238"/><path d="M248.229,358.077l15.13-7.827,14.836,9.3,55.549,1.815,8.04,27.043-80.4-18.638s-14.634,1.3-15.73-1.994S248.229,358.077,248.229,358.077Z" fill="#ffbe9d"/><path d="M293.738,401.415l-7.478,24.557.93,7.484h0a38.424,38.424,0,0,0,50.68,3.416h0a37.654,37.654,0,0,0,14.723-30.033l-.112-25.659Z" fill="#263238"/><path d="M249.2,401.575c-.086.116-8.767-6.213-19.387-14.134S210.653,373,210.739,372.887s8.766,6.212,19.389,14.136S249.29,401.46,249.2,401.575Z" fill="#455a64"/><path d="M262.339,355.153a59.509,59.509,0,0,1-7.4,2.645,59.5,59.5,0,0,1-7.559,2.148,59.334,59.334,0,0,1,7.4-2.644A59.353,59.353,0,0,1,262.339,355.153Z" fill="#eb996e"/><path d="M263.47,359.764a15.823,15.823,0,0,1-2.577.484c-1.593.26-3.787.651-6.184,1.2s-4.542,1.158-6.089,1.621a15.677,15.677,0,0,1-2.529.689,11.3,11.3,0,0,1,2.414-1.039,54.368,54.368,0,0,1,12.339-2.837A11.309,11.309,0,0,1,263.47,359.764Z" fill="#eb996e"/><path d="M262.2,363.995a70.375,70.375,0,0,1-8.335,1.918,70.013,70.013,0,0,1-8.438,1.407,70.835,70.835,0,0,1,8.336-1.918A70.432,70.432,0,0,1,262.2,363.995Z" fill="#eb996e"/><path d="M242.575,321.8l13.956,45.921a1.332,1.332,0,0,0,1.173.94l38.031,2.854a1.329,1.329,0,0,1,1.23,1.326v2.374a1.33,1.33,0,0,1-1.355,1.33L191.649,374.59a1.333,1.333,0,0,1-1.218-.856l-18.282-47.9a1.329,1.329,0,0,1,1.18-1.8l67.911-3.177A1.329,1.329,0,0,1,242.575,321.8Z" fill="#455a64"/><path d="M213.28,341.584a3.28,3.28,0,0,0-2.057,2.336,3.147,3.147,0,0,0,1.344,2.861,3.419,3.419,0,0,0,3.8.142,3.168,3.168,0,0,0,1.037-3.838c-.459-1.268-2.78-2.155-4.124-1.5" fill="#e0e0e0"/><path d="M230.124,443.279,219.136,425.2l80.8-63.327a32.466,32.466,0,0,1,17.648-7.233h0a32.469,32.469,0,0,1,35.3,35.038L351.6,405.13l-53.634,17.235Z" fill="#263238"/><path d="M333.744,400.359a1.216,1.216,0,0,1-.214.2l-.66.544-2.573,2.054-1.869,1.475c-.682.541-1.485,1.042-2.315,1.628l-2.684,1.84c-.477.323-.96.667-1.471,1l-1.6.966c-2.2,1.31-4.565,2.812-7.252,4.169-1.332.7-2.691,1.457-4.127,2.167l-4.465,2.116c-6.151,2.8-13.041,5.625-20.427,8.136-14.759,5.086-28.4,8.747-38.176,11.71-2.451.721-4.659,1.4-6.593,2.007s-3.608,1.115-4.959,1.575l-3.128,1.016-.818.252a1.2,1.2,0,0,1-.285.069,1.213,1.213,0,0,1,.267-.119l.8-.3,3.1-1.11c1.343-.489,3-1.034,4.935-1.659s4.13-1.339,6.574-2.082c9.752-3.055,23.38-6.772,38.113-11.85,7.374-2.507,14.251-5.307,20.4-8.08l4.462-2.091c1.436-.7,2.794-1.451,4.127-2.137,2.688-1.337,5.061-2.815,7.263-4.1l1.609-.948c.512-.323,1-.662,1.477-.978l2.7-1.8c.836-.573,1.646-1.062,2.335-1.59l1.892-1.435c1.118-.84,2-1.5,2.63-1.974l.692-.5A1.234,1.234,0,0,1,333.744,400.359Z" fill="#455a64"/><path d="M335.7,408.811a3.125,3.125,0,0,1-.815.427c-.537.246-1.328.568-2.318.936a59.076,59.076,0,0,1-16.091,3.458c-1.053.071-1.907.1-2.5.1a3.149,3.149,0,0,1-.918-.054,30.686,30.686,0,0,1,3.382-.411c2.087-.233,4.961-.638,8.092-1.308s5.914-1.486,7.913-2.131A30.851,30.851,0,0,1,335.7,408.811Z" fill="#455a64"/><path d="M296.7,364.913c.088.113-17.206,13.7-38.622,30.348s-38.857,30.054-38.946,29.941,17.2-13.7,38.626-30.352S296.616,364.8,296.7,364.913Z" fill="#455a64"/><path d="M292.034,432.113c-3.876-2.067-8.227-.845-11.935.4-2.469.832-5.034,2.15-7.541,1.444-1.813-.511-3.161-1.98-4.546-3.257a28.573,28.573,0,0,0-20.886-7.483,8.506,8.506,0,0,0-5.736,2.593c-3.807,4.123-.936,9.489,2.466,12.956a37.589,37.589,0,0,0,22.713,10.957c7.089.74,16.837-.239,24.027-3.317,4.432-1.9,6.707-7.127,4.381-11.35A7.283,7.283,0,0,0,292.034,432.113Z" fill="#e8505b"/><g opacity="0.4"><path d="M292.026,435.413c-3.876-2.067-8.227-.845-11.936.4-2.468.832-5.033,2.15-7.54,1.444-1.813-.511-3.162-1.98-4.546-3.257a28.576,28.576,0,0,0-20.887-7.484,8.509,8.509,0,0,0-5.736,2.594,6.615,6.615,0,0,0-1.6,2.89,15.076,15.076,0,0,0,4.064,6.766,37.591,37.591,0,0,0,22.714,10.957c7.089.74,16.837-.239,24.026-3.317a8.768,8.768,0,0,0,5.114-6.1,7.4,7.4,0,0,0-.733-1.955A7.281,7.281,0,0,0,292.026,435.413Z"/></g><path d="M295.7,440.316a6.731,6.731,0,0,0-.95-2.3,7.517,7.517,0,0,0-2.074-2.028,8.285,8.285,0,0,0-3.563-1.364c-2.878-.338-6.212.873-9.916,1.876-1.831.484-3.831,1.226-6.02.951a7.98,7.98,0,0,1-3.1-1.072,19.252,19.252,0,0,1-2.662-2,28.978,28.978,0,0,0-15.873-7.523,16.594,16.594,0,0,0-4.691-.027,10.221,10.221,0,0,0-3.629,1.266A9.254,9.254,0,0,0,241,429.979a22.5,22.5,0,0,0-1.431,2.066,8.043,8.043,0,0,1,1.275-2.2,9.081,9.081,0,0,1,2.227-2,10.369,10.369,0,0,1,3.721-1.382,16.709,16.709,0,0,1,4.8-.037,27.62,27.62,0,0,1,5.373,1.2,31.1,31.1,0,0,1,5.564,2.456,23.182,23.182,0,0,1,2.708,1.763c.862.676,1.679,1.418,2.516,2.14a19.082,19.082,0,0,0,2.586,1.954,7.487,7.487,0,0,0,2.9,1.011c2.028.268,3.973-.425,5.83-.908,3.687-.966,7.079-2.173,10.088-1.778a8.337,8.337,0,0,1,5.761,3.647,5.381,5.381,0,0,1,.717,1.75A2.462,2.462,0,0,1,295.7,440.316Z" fill="#263238"/><path d="M295.7,440.316a6.731,6.731,0,0,0-.95-2.3,7.517,7.517,0,0,0-2.074-2.028,8.285,8.285,0,0,0-3.563-1.364c-2.878-.338-6.212.873-9.916,1.876-1.831.484-3.831,1.226-6.02.951a7.98,7.98,0,0,1-3.1-1.072,19.252,19.252,0,0,1-2.662-2,28.978,28.978,0,0,0-15.873-7.523,16.594,16.594,0,0,0-4.691-.027,10.221,10.221,0,0,0-3.629,1.266A9.254,9.254,0,0,0,241,429.979a22.5,22.5,0,0,0-1.431,2.066,8.043,8.043,0,0,1,1.275-2.2,9.081,9.081,0,0,1,2.227-2,10.369,10.369,0,0,1,3.721-1.382,16.709,16.709,0,0,1,4.8-.037,27.62,27.62,0,0,1,5.373,1.2,31.1,31.1,0,0,1,5.564,2.456,23.182,23.182,0,0,1,2.708,1.763c.862.676,1.679,1.418,2.516,2.14a19.082,19.082,0,0,0,2.586,1.954,7.487,7.487,0,0,0,2.9,1.011c2.028.268,3.973-.425,5.83-.908,3.687-.966,7.079-2.173,10.088-1.778a8.337,8.337,0,0,1,5.761,3.647,5.381,5.381,0,0,1,.717,1.75A2.462,2.462,0,0,1,295.7,440.316Z" fill="#263238"/><path d="M247.631,439.383a9.947,9.947,0,0,1,1.985-1.375,57.264,57.264,0,0,1,10.523-4.947,9.938,9.938,0,0,1,2.324-.651,12.577,12.577,0,0,1-2.193,1c-1.369.57-3.252,1.372-5.3,2.332s-3.862,1.9-5.175,2.591A12.515,12.515,0,0,1,247.631,439.383Z" fill="#263238"/><path d="M248.963,443.26a69.967,69.967,0,0,1,7.569-3.949,69.97,69.97,0,0,1,7.8-3.48,70.438,70.438,0,0,1-7.571,3.949A70.4,70.4,0,0,1,248.963,443.26Z" fill="#263238"/><path d="M265.02,444.941c-.077.121-4.207-2.343-9.224-5.5s-9.024-5.823-8.947-5.944,4.206,2.342,9.225,5.5S265.1,444.819,265.02,444.941Z" fill="#263238"/><path d="M267.344,440.919a12.346,12.346,0,0,1-2.022-1.351c-1.215-.876-2.891-2.087-4.767-3.388s-3.6-2.445-4.845-3.276a12.284,12.284,0,0,1-1.975-1.419,10.424,10.424,0,0,1,2.169,1.107c1.3.753,3.062,1.854,4.948,3.16s3.533,2.57,4.694,3.524A10.432,10.432,0,0,1,267.344,440.919Z" fill="#263238"/></g></svg>