<svg xmlns="http://www.w3.org/2000/svg" width="355.848" height="438.751" viewBox="0 0 355.848 438.751"><g transform="translate(-80.783 -35.007)"><path d="M332.181,92.079h65.751s-5.815-10.581-22.739-9.041c-16.164,1.471-16.986-5.205-25.2-6.027S334.921,82.49,332.181,92.079Z" fill="#e0e0e0"/><path d="M160.321,265.9s-6.587,3.563,3,17.32,15.83,20.363,15.83,20.363,1.813,3.25-1.005,4.183-9.326.794-10.127,4.51c-.83,3.855,2.313,6.95,8.137,9.242s18.4,7.782,19.534,8.282c1.114.492,2.365,1.949.547,2.891S180.3,337.1,182.352,343.7s19.32,10.32,21.2,10.762,2.412,1.141,2.4,2.141-4.865,1.719-8.84,2.87-8.381,3.183-6.881,6.892,12.356,10.439,36.333,9.5l11.082-1.164,4.719-10.149c8.776-22.333,5.99-34.8,2.981-37.435s-6.377.857-8.771,4.232-4.67,7.723-5.618,7.4-1.432-1.05-1.232-2.972,2.368-19.457-3.191-23.561-13.478,8.087-14.967,9.494-2.452-.253-2.55-1.468c-.1-1.236-1.148-14.917-1.4-21.171s-2.139-10.24-6.052-10.723c-3.772-.466-5.783,5.725-7.59,8.08S189.7,296,189.7,296s-4.185-8.065-14.023-21.646-15.483-8.378-15.483-8.378" fill="#ebebeb"/><path d="M238.577,377.215c-7.186-10-19.659-27.994-30.448-43.386s-20.564-29.307-27.7-39.345c-3.567-5.006-6.456-9.062-8.462-11.879-.991-1.394-1.764-2.48-2.3-3.231l-.59-.846c-.132-.192-.192-.3-.192-.3s.08.09.22.274l.619.826,2.351,3.193c2.039,2.776,4.961,6.814,8.552,11.816,7.186,10,17,23.9,27.782,39.289s23.23,33.4,30.364,43.442" fill="#e0e0e0"/><path d="M177.118,312.834a3.608,3.608,0,0,1,.8.108c.511.09,1.244.241,2.149.437,1.81.394,4.294,1,7.024,1.723l6.981,1.871,2.118.553a3.56,3.56,0,0,1,.771.235,3.688,3.688,0,0,1-.8-.1c-.51-.091-1.244-.242-2.147-.447-1.806-.413-4.282-1.053-7.011-1.774l-6.992-1.82-2.122-.543A3.636,3.636,0,0,1,177.118,312.834Z" fill="#e0e0e0"/><path d="M197.617,316.951c-.093-.02.935-5.2,2.3-11.563s2.542-11.513,2.635-11.493-.935,5.2-2.3,11.565S197.711,316.971,197.617,316.951Z" fill="#e0e0e0"/><path d="M213.117,341.33a3.851,3.851,0,0,1,.354-.743c.285-.527.639-1.186,1.061-1.968.893-1.663,2.116-3.965,3.373-6.554s2.324-4.969,3.079-6.7l.9-2.048a3.763,3.763,0,0,1,.365-.737,3.694,3.694,0,0,1-.24.787c-.176.5-.444,1.215-.795,2.093-.7,1.757-1.727,4.161-2.994,6.755s-2.521,4.887-3.471,6.522c-.477.816-.872,1.472-1.157,1.917A3.712,3.712,0,0,1,213.117,341.33Z" fill="#e0e0e0"/><path d="M193.756,341.687a3.21,3.21,0,0,1,.756-.091l2.064-.119c1.743-.086,4.152-.181,6.814-.264s5.073-.139,6.818-.162l2.068-.01a3.226,3.226,0,0,1,.759.044,3.206,3.206,0,0,1-.755.091l-2.064.12c-1.744.085-4.153.18-6.815.263s-5.072.139-6.818.162l-2.067.01A3.17,3.17,0,0,1,193.756,341.687Z" fill="#e0e0e0"/><path d="M204.706,364.948a5.174,5.174,0,0,1,.967-.107l2.645-.163c2.234-.122,5.321-.268,8.731-.407s6.5-.246,8.736-.3l2.649-.054a5.294,5.294,0,0,1,.973.028,5.212,5.212,0,0,1-.968.107l-2.644.163c-2.234.122-5.321.268-8.732.407s-6.5.246-8.735.306l-2.649.053A5.289,5.289,0,0,1,204.706,364.948Z" fill="#e0e0e0"/><path d="M228.81,363.8a6.044,6.044,0,0,1,.424-.953l1.255-2.544c1.057-2.149,2.505-5.123,4.011-8.451s2.8-6.374,3.718-8.587l1.089-2.619a6.062,6.062,0,0,1,.436-.947,5.922,5.922,0,0,1-.31.995c-.221.633-.556,1.544-.988,2.662-.86,2.238-2.115,5.306-3.629,8.639s-2.995,6.3-4.109,8.419c-.56,1.06-1.021,1.914-1.353,2.5A6.1,6.1,0,0,1,228.81,363.8Z" fill="#e0e0e0"/><path d="M321.8,216.22c-11.906-13.347-10.76-32.615-6.256-49.112.751-2.754,1.14-5.753,3.037-7.876s5.373-3.057,7.582-1.3c1.831,1.459,2.162,4.07,2.846,6.326a16.7,16.7,0,0,0,5.037,7.761c1.551,1.336,3.605,2.415,5.578,1.866,2.707-.754,3.773-3.995,4.41-6.761l3.561-15.461a26.441,26.441,0,0,1,2.775-8c1.48-2.418,3.954-4.4,6.754-4.516s5.691,2.17,5.605,5a26.075,26.075,0,0,1-.736,3.456,2.987,2.987,0,0,0,1.052,3.137c1.025.585,2.316.063,3.332-.549,3.511-2.113,6.295-5.246,8.948-8.389s5.274-6.385,8.58-8.813,7.454-3.99,11.461-3.278,7.642,4.152,7.722,8.27-3.127,7.541-6.344,10.107a63.331,63.331,0,0,1-15.73,9.192,5.216,5.216,0,0,0-2.693,1.8c-1.036,1.7.275,3.94,1.95,4.975,1.9,1.173,4.179,1.488,6.272,2.252s4.2,2.265,4.532,4.493c.463,3.09-2.6,5.489-5.379,6.876A54.271,54.271,0,0,1,367.938,183c-2.207.262-4.5.408-6.475,1.446s-3.552,3.287-3.023,5.466,2.921,3.4,5.142,3.514,4.4-.594,6.607-.879c4.134-.533,8.972.889,10.626,4.744a8.982,8.982,0,0,1-.9,7.947,20.707,20.707,0,0,1-5.8,5.832,54.559,54.559,0,0,1-26.442,10.561c-9.525.968-17.876-.138-25.866-5.409" fill="#f5f5f5"/><path d="M324.216,217.824c2.163-6.446-.1-3.21,4.351-11.013A254,254,0,0,1,344.7,182.5l4.555-6.155c1.5-2.017,2.987-4.017,4.563-5.883a126.673,126.673,0,0,1,9.668-10.206c3.232-3.1,6.412-5.919,9.4-8.535s5.841-4.993,8.524-7.053a100.777,100.777,0,0,1,13.368-8.768c1.654-.908,2.959-1.57,3.851-2.007l1.016-.491a2.077,2.077,0,0,1,.354-.151,1.974,1.974,0,0,1-.33.2l-.993.537c-.875.468-2.164,1.159-3.8,2.093a106.486,106.486,0,0,0-13.242,8.884c-2.661,2.073-5.482,4.464-8.464,7.086s-6.143,5.458-9.358,8.557a128.205,128.205,0,0,0-9.607,10.187c-1.565,1.858-3.037,3.842-4.539,5.865s-3.014,4.076-4.551,6.153a260.753,260.753,0,0,0-16.133,24.239c-4.459,7.766-2.218,4.484-4.418,10.892" fill="#e0e0e0"/><path d="M353.965,170.477a5.725,5.725,0,0,1,.009-1.241c.035-.8.125-1.949.257-3.37.261-2.842.755-6.754,1.316-11.064s1-8.221,1.215-11.059c.113-1.418.192-2.567.237-3.362a5.713,5.713,0,0,1,.129-1.235,5.542,5.542,0,0,1,.074,1.239c.017.8-.006,1.954-.072,3.38-.123,2.853-.5,6.784-1.066,11.1-.564,4.252-1.075,8.1-1.466,11.039-.168,1.329-.309,2.449-.422,3.348A5.709,5.709,0,0,1,353.965,170.477Z" fill="#e0e0e0"/><path d="M391.034,172.251a7.79,7.79,0,0,1-1.456-.165c-.93-.135-2.275-.337-3.944-.533-3.334-.42-7.96-.837-13.085-1.075s-9.774-.238-13.136-.147c-1.682.032-3.042.1-3.983.134a7.851,7.851,0,0,1-1.465.012,7.819,7.819,0,0,1,1.452-.217c.938-.1,2.3-.221,3.985-.3,3.368-.186,8.033-.235,13.174-.007a128.62,128.62,0,0,1,13.11,1.233c1.668.244,3.008.5,3.929.7A7.805,7.805,0,0,1,391.034,172.251Z" fill="#e0e0e0"/><path d="M329.158,206.261a1.836,1.836,0,0,1-.141-.49l-.3-1.428c-.257-1.242-.583-3.047-.956-5.284-.75-4.472-1.59-10.682-2.425-17.548s-1.618-13.078-2.273-17.559c-.325-2.18-.593-3.973-.791-5.306-.083-.578-.152-1.054-.207-1.445a1.9,1.9,0,0,1-.038-.511,1.869,1.869,0,0,1,.141.491l.3,1.427c.258,1.242.583,3.047.957,5.284.749,4.472,1.59,10.682,2.425,17.551s1.618,13.075,2.272,17.557c.326,2.179.593,3.973.791,5.3.084.578.152,1.055.208,1.446A1.906,1.906,0,0,1,329.158,206.261Z" fill="#e0e0e0"/><path d="M379.93,202.232a1.942,1.942,0,0,1-.513.082l-1.479.134-5.439.441c-4.593.373-10.93.961-17.932,1.62s-13.353,1.19-17.954,1.467c-2.3.14-4.164.234-5.452.273l-1.484.036a1.878,1.878,0,0,1-.519-.024,1.966,1.966,0,0,1,.514-.083c.4-.035.885-.079,1.478-.134l5.439-.44c4.592-.372,10.93-.961,17.934-1.62s13.35-1.19,17.952-1.468c2.3-.14,4.163-.234,5.452-.272l1.484-.036A1.835,1.835,0,0,1,379.93,202.232Z" fill="#e0e0e0"/><path d="M419.314,304a2.829,2.829,0,0,1-.167.467L418.6,305.8c-.509,1.2-1.228,2.891-2.135,5.027-1.879,4.348-4.534,10.492-7.7,17.827l-.046.108-.118.02-24.219,4-8.119,1.328-.37.06.092-.362c1.974-7.789,3.791-14.962,5.335-21.054l.114.233L367.2,306.628l-3.927-1.789-1.023-.483a1.819,1.819,0,0,1-.342-.184,1.871,1.871,0,0,1,.367.128l1.047.429,3.971,1.688,14.3,6.2.155.068-.041.166c-1.519,6.1-3.308,13.278-5.25,21.076l-.278-.3,8.119-1.334,24.228-3.94-.164.127c3.238-7.3,5.95-13.424,7.869-17.755.955-2.116,1.711-3.793,2.245-4.978.255-.548.457-.981.608-1.307A2.675,2.675,0,0,1,419.314,304Z" fill="#e0e0e0"/><path d="M379.1,331.252l-.662,1.743,1.06,1.533-1.862-.091-1.13,1.482-.489-1.8-1.759-.617,1.56-1.021.043-1.864,1.453,1.168Z" fill="#e0e0e0"/><path d="M362.466,303l-.329.867.528.763-.926-.045-.562.737-.243-.895-.875-.307.776-.508.021-.927.723.581Z" fill="#e0e0e0"/><path d="M409.437,327.565l-.329.867.527.763-.926-.045-.562.737-.243-.895-.875-.307.776-.508.021-.927.723.581Z" fill="#e0e0e0"/><path d="M382.332,311.968l-.329.867.527.763-.926-.045-.562.737-.243-.895-.875-.307.776-.508.022-.927.723.581Z" fill="#e0e0e0"/><path d="M420.44,303.135l-.329.867.527.763-.926-.045-.562.737-.243-.895-.875-.307.776-.508.022-.927.723.581Z" fill="#e0e0e0"/><path d="M117.345,375.906H169.7s-4.629-8.424-18.1-7.2c-12.87,1.171-13.524-4.144-20.068-4.8S119.526,368.272,117.345,375.906Z" fill="#e0e0e0"/><path d="M127.739,169.793h52.35s-4.629-8.425-18.1-7.2c-12.87,1.171-13.524-4.145-20.068-4.8S129.92,162.158,127.739,169.793Z" fill="#f5f5f5"/><path d="M393.619,206.2h43.012s-3.8-6.922-14.875-5.914c-10.574.962-11.112-3.4-16.488-3.943S395.411,199.925,393.619,206.2Z" fill="#f5f5f5"/><path d="M307.732,291.1c2.135-16.118-9.2-29.415-23.355-37.406s-30.586-10.665-46.226-15.109c-14.75-4.191-29.42-10.305-40.345-21.065s-17.479-26.935-13.551-41.758c.986-3.721,2.748-7.46,5.944-9.606s8.075-2.093,10.459.931c5.077,6.438-4.816,17.97,1.379,23.341,1.422,1.233,3.378,1.687,4.85,2.86,3.917,3.123,2.649,9.2,3.2,14.177,1.093,9.848,10.328,16.687,19.4,20.678,12.148,5.345,25.309,7.857,38.2,11.025s25.883,7.159,36.62,14.96,20.052,20.012,19.978,33.284c-.021,3.708-.493,8.269-2.82,11.156s-5.292,3.487-8.648,1.908-5.7-4.021-5.082-9.376" fill="#e8505b"/><g opacity="0.8"><path d="M307.732,291.1c2.135-16.118-9.2-29.415-23.355-37.406s-30.586-10.665-46.226-15.109c-14.75-4.191-29.42-10.305-40.345-21.065s-17.479-26.935-13.551-41.758c.986-3.721,2.748-7.46,5.944-9.606s8.075-2.093,10.459.931c5.077,6.438-4.816,17.97,1.379,23.341,1.422,1.233,3.378,1.687,4.85,2.86,3.917,3.123,2.649,9.2,3.2,14.177,1.093,9.848,10.328,16.687,19.4,20.678,12.148,5.345,25.309,7.857,38.2,11.025s25.883,7.159,36.62,14.96,20.052,20.012,19.978,33.284c-.021,3.708-.493,8.269-2.82,11.156s-5.292,3.487-8.648,1.908-5.7-4.021-5.082-9.376" fill="#fff"/></g><path d="M239.229,162.972c-.51-5.97,3.937-11.168,9-13.955s10.851-3.919,16.065-6.392c12.948-6.138,21.18-20.583,21.788-35.4S280.265,77.6,270.215,66.718c-4.083-4.422-9.106-9.055-9.166-15.088-.063-6.3,6.043-11.257,12.142-11.177s11.718,4.162,15.37,9.3,5.671,11.256,7.636,17.265c-1.4-2.512,1.476-5.624,4.248-5.356s4.96,2.58,6.671,4.883a52.039,52.039,0,0,1,9.97,34.843,49.07,49.07,0,0,1-15.5,31.945c-9.866,8.992-22.921,13.212-35.574,17.2L239.6,158.87" fill="#e8505b"/><g opacity="0.8"><path d="M239.229,162.972c-.51-5.97,3.937-11.168,9-13.955s10.851-3.919,16.065-6.392c12.948-6.138,21.18-20.583,21.788-35.4S280.265,77.6,270.215,66.718c-4.083-4.422-9.106-9.055-9.166-15.088-.063-6.3,6.043-11.257,12.142-11.177s11.718,4.162,15.37,9.3,5.671,11.256,7.636,17.265c-1.4-2.512,1.476-5.624,4.248-5.356s4.96,2.58,6.671,4.883a52.039,52.039,0,0,1,9.97,34.843,49.07,49.07,0,0,1-15.5,31.945c-9.866,8.992-22.921,13.212-35.574,17.2L239.6,158.87" fill="#fff"/></g><path d="M231.881,37.523a5.6,5.6,0,1,0,.921-.3" fill="#e8505b"/><g opacity="0.8"><path d="M231.881,37.523a5.6,5.6,0,1,0,.921-.3" fill="#fff"/></g><path d="M264.452,422.841c-3.237-6.713-.415-15.08,4.744-20.46s12.2-8.451,19.025-11.455c15.054-6.632,30.993-14.534,38.648-29.094,2.582-4.911,4.053-10.315,5.505-15.669,2.81-10.364,5.444-22.133-.207-31.264-1.625-2.626-4.069-4.963-7.11-5.5-3.462-.614-7.024,1.293-9.157,4.088s-3.049,6.335-3.491,9.823c-.84,6.637-.144,13.388-.842,20.041s-3.132,13.611-8.62,17.437c-6.664,4.646-16.175,3.6-22.648,8.512-5.226,3.964-7.215,10.839-11.3,15.969-3.435,4.312-8.243,7.258-12.647,10.575s-8.663,7.363-10.159,12.669a15.008,15.008,0,0,0,20.89,17.627" fill="#e8505b"/><g opacity="0.8"><path d="M264.452,422.841c-3.237-6.713-.415-15.08,4.744-20.46s12.2-8.451,19.025-11.455c15.054-6.632,30.993-14.534,38.648-29.094,2.582-4.911,4.053-10.315,5.505-15.669,2.81-10.364,5.444-22.133-.207-31.264-1.625-2.626-4.069-4.963-7.11-5.5-3.462-.614-7.024,1.293-9.157,4.088s-3.049,6.335-3.491,9.823c-.84,6.637-.144,13.388-.842,20.041s-3.132,13.611-8.62,17.437c-6.664,4.646-16.175,3.6-22.648,8.512-5.226,3.964-7.215,10.839-11.3,15.969-3.435,4.312-8.243,7.258-12.647,10.575s-8.663,7.363-10.159,12.669a15.008,15.008,0,0,0,20.89,17.627" fill="#fff"/></g><path d="M164.326,83.856a20.838,20.838,0,0,1,.6-33.9c3.074-2.115,6.721-3.409,9.455-5.949,2.431-2.259,4.012-5.393,6.732-7.293A9.8,9.8,0,0,1,195.96,48.042c-1.253,3.509-4.4,6.073-5.72,9.56-1.417,3.753-.5,7.957-1.031,11.934a16.479,16.479,0,0,1-22.074,13.286" fill="#e8505b"/><g opacity="0.8"><path d="M164.326,83.856a20.838,20.838,0,0,1,.6-33.9c3.074-2.115,6.721-3.409,9.455-5.949,2.431-2.259,4.012-5.393,6.732-7.293A9.8,9.8,0,0,1,195.96,48.042c-1.253,3.509-4.4,6.073-5.72,9.56-1.417,3.753-.5,7.957-1.031,11.934a16.479,16.479,0,0,1-22.074,13.286" fill="#fff"/></g><path d="M0,0H12.29a0,0,0,0,1,0,0V25.335a5.413,5.413,0,0,1-5.413,5.413H5.413A5.413,5.413,0,0,1,0,25.335V0A0,0,0,0,1,0,0Z" transform="translate(164.71 62.417)" fill="#e8505b"/><path d="M164.71,62.417l6.145-11.271L177,62.417Z" fill="#ffbe9d"/><path d="M168.421,55.61s1.866,2.807,4.868,0l-2.434-4.464Z" fill="#e8505b"/><line x2="2.638" transform="translate(166.53 62.417)" fill="#fff" opacity="0.3"/><path d="M177.17,86.518a39.553,39.553,0,0,1-6.247.248,39.542,39.542,0,0,1-6.247-.248,39.542,39.542,0,0,1,6.247-.248A39.553,39.553,0,0,1,177.17,86.518Z" fill="#263238"/><path d="M177.044,84.634a37.764,37.764,0,0,1-6.121.249,37.782,37.782,0,0,1-6.122-.249,37.994,37.994,0,0,1,6.122-.248A37.976,37.976,0,0,1,177.044,84.634Z" fill="#263238"/><path d="M168.317,62.6c.137,0,.249,4.9.249,10.955s-.112,10.957-.249,10.957-.248-4.905-.248-10.957S168.18,62.6,168.317,62.6Z" fill="#fafafa"/><path d="M173.289,62.6c.137,0,.249,4.9.249,10.955s-.112,10.957-.249,10.957-.248-4.905-.248-10.957S173.152,62.6,173.289,62.6Z" fill="#fafafa"/><path d="M271.485,408.718l55.835,2.388,1.348,3.253-36.594,59.4-66.062-1.926Z" fill="#263238"/><path d="M223.506,466.041l66.46,3.8,34.712-53.869L300.3,417.949,238.61,439.674Z" fill="#e0e0e0"/><path d="M214.172,462.046l61.029.964c-2.536-7.808,3.443-18.805,11.648-22.5,5.438-2.452,15.671-5.628,20.95-8.336,10.033-5.147,19.1-14.893,18.306-23.256l-25.065-.8-31.991-1.236c-2.675,7.936-8.4,13.135-17.1,16.262-7.784,2.8-16.645,2.792-24.238,5.972-12.221,5.119-18.094,21.7-13.543,32.932" fill="#ebebeb"/><path d="M214.172,462.046s-.058-.13-.154-.393c-.1-.278-.237-.668-.418-1.178a13.65,13.65,0,0,1-.519-1.976,20.132,20.132,0,0,1-.421-2.778,28.09,28.09,0,0,1,.484-7.759,28.933,28.933,0,0,1,3.914-9.686,23.375,23.375,0,0,1,1.756-2.453c.331-.4.642-.819,1-1.207l1.127-1.142a10.48,10.48,0,0,1,1.22-1.1c.432-.345.851-.719,1.307-1.051a22.273,22.273,0,0,1,2.972-1.772c4.229-2.132,9.281-3.032,14.541-3.984,2.638-.48,5.354-.983,8.081-1.733a37.738,37.738,0,0,0,8.045-3.237,26.483,26.483,0,0,0,3.755-2.463,22.4,22.4,0,0,0,3.333-3.147,24.086,24.086,0,0,0,4.637-8.184l.055-.163.171.007,26.656,1.016c9.242.364,18.814.614,28.612.943l1.787.057.221.007.019.218a13.63,13.63,0,0,1-.807,5.641,21.227,21.227,0,0,1-1.118,2.6,27.727,27.727,0,0,1-1.459,2.4,36.98,36.98,0,0,1-7.562,7.993,44.792,44.792,0,0,1-9.123,5.637c-3.22,1.447-6.48,2.627-9.672,3.808s-6.348,2.3-9.345,3.6a18.4,18.4,0,0,0-4.105,2.492c-.649.463-1.191,1.049-1.783,1.567-.522.59-1.1,1.124-1.567,1.753a22.639,22.639,0,0,0-4.268,8.021,14.868,14.868,0,0,0-.151,8.539l.082.27-.278-.005-44.384-.787-12.308-.249-3.229-.081c-.729-.022-1.1-.049-1.1-.049s.376-.015,1.106-.013l3.229.021,12.31.139,44.387.614-.2.265a15.261,15.261,0,0,1,.127-8.782,23.037,23.037,0,0,1,4.333-8.183c.473-.641,1.063-1.188,1.6-1.789a24.008,24.008,0,0,1,1.818-1.6,18.9,18.9,0,0,1,4.2-2.558c3.023-1.32,6.178-2.442,9.368-3.627s6.444-2.367,9.635-3.8a44.344,44.344,0,0,0,9.018-5.581,36.527,36.527,0,0,0,7.457-7.887,27.253,27.253,0,0,0,1.43-2.353,20.45,20.45,0,0,0,1.088-2.534,13.127,13.127,0,0,0,.781-5.431l.239.225-1.787-.057c-9.8-.328-19.371-.582-28.614-.953l-26.656-1.044.226-.156a24.511,24.511,0,0,1-4.737,8.33,22.887,22.887,0,0,1-3.4,3.2,27,27,0,0,1-3.818,2.493,38.123,38.123,0,0,1-8.142,3.256c-2.752.749-5.48,1.247-8.121,1.719-5.263.936-10.287,1.819-14.46,3.906a22.027,22.027,0,0,0-2.933,1.733c-.451.325-.865.693-1.293,1.032a10.028,10.028,0,0,0-1.208,1.076l-1.119,1.122c-.356.382-.664.8-.993,1.189a23.268,23.268,0,0,0-1.75,2.419,28.858,28.858,0,0,0-3.938,9.581,28.347,28.347,0,0,0-.548,7.7,20.786,20.786,0,0,0,.384,2.767,14.338,14.338,0,0,0,.482,1.977l.381,1.186C214.138,461.906,214.172,462.046,214.172,462.046Z" fill="#263238"/><path d="M286.193,407.869c-.044-.013.08-.391.138-1.091a6.186,6.186,0,0,0-.48-2.882,5.92,5.92,0,0,0-2.885-3.091,6.663,6.663,0,0,0-5.142-.185,6.733,6.733,0,0,0-3.715,3.576,7.387,7.387,0,0,0-.588,4.251,7.252,7.252,0,0,0,1.043,2.747c.378.593.66.874.629.9a2.714,2.714,0,0,1-.787-.793,6.8,6.8,0,0,1-1.23-2.8,7.544,7.544,0,0,1,.515-4.5,7.091,7.091,0,0,1,3.958-3.853,7.018,7.018,0,0,1,5.518.238,6.171,6.171,0,0,1,3.01,3.372,5.923,5.923,0,0,1,.346,3.035,4.023,4.023,0,0,1-.2.806C286.252,407.785,286.209,407.875,286.193,407.869Z" fill="#263238"/><path d="M295.758,407.869c-.044-.013.08-.391.138-1.091a6.186,6.186,0,0,0-.48-2.882,5.92,5.92,0,0,0-2.885-3.091,6.663,6.663,0,0,0-5.142-.185,6.733,6.733,0,0,0-3.715,3.576,7.387,7.387,0,0,0-.588,4.251,7.252,7.252,0,0,0,1.043,2.747c.378.593.66.874.629.9a2.714,2.714,0,0,1-.787-.793,6.8,6.8,0,0,1-1.23-2.8,7.544,7.544,0,0,1,.515-4.5,6.968,6.968,0,0,1,9.476-3.615,6.171,6.171,0,0,1,3.01,3.372,5.923,5.923,0,0,1,.346,3.035,4.023,4.023,0,0,1-.2.806C295.817,407.785,295.774,407.875,295.758,407.869Z" fill="#263238"/><path d="M303.023,408.366c-.045-.011.057-.4.075-1.1a6.167,6.167,0,0,0-.641-2.851,5.927,5.927,0,0,0-3.056-2.923,6.6,6.6,0,0,0-8.651,3.887,7.391,7.391,0,0,0-.346,4.278,7.234,7.234,0,0,0,1.2,2.683c.411.571.708.835.679.867a2.709,2.709,0,0,1-.831-.747,6.806,6.806,0,0,1-1.387-2.721,7.562,7.562,0,0,1,.26-4.522,6.968,6.968,0,0,1,9.257-4.147,6.178,6.178,0,0,1,3.2,3.2,5.922,5.922,0,0,1,.516,3.01,4.059,4.059,0,0,1-.157.817C303.077,408.279,303.039,408.37,303.023,408.366Z" fill="#263238"/><path d="M310.811,408.809c-.046-.008.037-.4.018-1.1a6.2,6.2,0,0,0-.792-2.813,5.928,5.928,0,0,0-3.206-2.757,6.664,6.664,0,0,0-5.132.379,6.737,6.737,0,0,0-3.3,3.961,7.383,7.383,0,0,0-.118,4.289,7.233,7.233,0,0,0,1.337,2.617c.441.548.752.8.724.83a2.728,2.728,0,0,1-.87-.7,6.8,6.8,0,0,1-1.528-2.644,7.552,7.552,0,0,1,.02-4.529,6.967,6.967,0,0,1,9.024-4.63,6.178,6.178,0,0,1,3.361,3.022,5.924,5.924,0,0,1,.675,2.979,4.013,4.013,0,0,1-.114.824C310.86,408.719,310.828,408.813,310.811,408.809Z" fill="#263238"/><path d="M318.615,408.626c-.046-.007.025-.4-.014-1.1a6.175,6.175,0,0,0-.87-2.789,5.928,5.928,0,0,0-3.282-2.666,6.663,6.663,0,0,0-5.119.524,6.73,6.73,0,0,0-3.189,4.051,7.384,7.384,0,0,0,0,4.292,7.26,7.26,0,0,0,1.41,2.577c.457.536.775.775.747.81a2.749,2.749,0,0,1-.888-.678,6.8,6.8,0,0,1-1.6-2.6,7.551,7.551,0,0,1-.108-4.528,6.967,6.967,0,0,1,8.89-4.883,6.175,6.175,0,0,1,3.445,2.928,5.926,5.926,0,0,1,.759,2.958,4.023,4.023,0,0,1-.091.827C318.662,408.534,318.632,408.629,318.615,408.626Z" fill="#263238"/><path d="M325.191,409.5c-.046-.009.041-.4.03-1.1a6.181,6.181,0,0,0-.759-2.821,5.921,5.921,0,0,0-3.173-2.8,6.665,6.665,0,0,0-5.136.318,6.739,6.739,0,0,0-3.348,3.922,7.388,7.388,0,0,0-.169,4.288,7.239,7.239,0,0,0,1.306,2.632c.434.553.743.805.714.838a2.715,2.715,0,0,1-.861-.713,6.808,6.808,0,0,1-1.5-2.662,7.55,7.55,0,0,1,.073-4.528,7.091,7.091,0,0,1,3.563-4.222,7.02,7.02,0,0,1,5.515-.3,6.177,6.177,0,0,1,3.325,3.062,5.92,5.92,0,0,1,.64,2.987,3.93,3.93,0,0,1-.124.822C325.241,409.413,325.207,409.506,325.191,409.5Z" fill="#263238"/><path d="M353.952,204.652a54.768,54.768,0,0,0-8.268.374,34.413,34.413,0,0,0-30.038,34.3,61.021,61.021,0,0,0,2.138,16.347c4.807,17.056,6.291,32.093,5.736,39.414l16.1,8.652s7.453-10.706,14.651-15.324,31.162-16.963,40.65-29.656c6.116-8.182,7.291-24.974-7.289-39.66A49.427,49.427,0,0,0,353.952,204.652Z" fill="#e8505b"/><path d="M315.9,313.712l14.542,7.859-9.466,12.021-9.693-4.406Z" fill="#455a64"/><path d="M316.607,314.2c-.129-.047,1.314-4.363,3.223-9.64s3.561-9.518,3.69-9.471-1.314,4.362-3.223,9.64S316.736,314.243,316.607,314.2Z" fill="#263238"/><path d="M329.526,320.98c-.118-.07,2.16-4.147,5.088-9.105s5.4-8.924,5.517-8.854-2.16,4.146-5.089,9.106S329.644,321.05,329.526,320.98Z" fill="#263238"/><g opacity="0.4"><path d="M358.8,205.109c-.653.036-8.654,9.4-12.194,15.741-11.908,21.327-12.443,42.082-15.748,66.283-.472,3.457-2.191,10.911-2.158,10.738,1.761,1.381,7.683,4.13,7.683,4.13s5.584-6.74,7.8-10.131c8.887-13.575,18.534-24.156,26.141-38.488s14.928-27.04,7.888-41.658C378.217,211.724,366.024,204.7,358.8,205.109Z"/></g><path d="M394.979,260.9a2.611,2.611,0,0,1-.208-.461c-.135-.3-.287-.772-.557-1.352a24.658,24.658,0,0,0-8.986-10.49,23.531,23.531,0,0,0-10.132-3.75l-.1-.013-.057-.077a56.354,56.354,0,0,0-6.5-7.458,32.547,32.547,0,0,0-8.869-6.107,22.951,22.951,0,0,0-10.482-2,17.35,17.35,0,0,0-9.174,3.058l-.145.1-.134-.117a18.05,18.05,0,0,0-9.8-4.354,17.723,17.723,0,0,0-8.33,1.062,18.473,18.473,0,0,0-4.784,2.693c-.5.393-.879.713-1.123.937a2.687,2.687,0,0,1-.388.324,2.542,2.542,0,0,1,.338-.376,13.233,13.233,0,0,1,1.084-.995,17.92,17.92,0,0,1,13.244-4.014,18.348,18.348,0,0,1,10.052,4.388l-.278-.014a17.743,17.743,0,0,1,9.408-3.178,23.318,23.318,0,0,1,10.712,2.029,32.777,32.777,0,0,1,9,6.208A55.978,55.978,0,0,1,375.3,244.5l-.154-.089a23.722,23.722,0,0,1,10.284,3.885,24.466,24.466,0,0,1,6.187,5.912,22.918,22.918,0,0,1,2.725,4.832c.251.592.382,1.071.495,1.383A2.588,2.588,0,0,1,394.979,260.9Z" fill="#263238"/><path d="M365.056,282.155a10.269,10.269,0,0,0-1.387-3.5,9.551,9.551,0,0,0-3.091-2.967,8.634,8.634,0,0,0-5.327-1.262l-.2.019-.031-.2a14.076,14.076,0,0,0-2.641-6.217,13.863,13.863,0,0,0-5.971-4.636,14.266,14.266,0,0,0-11.806.613l-.153.081-.118-.127a10.138,10.138,0,0,0-5.59-3.027,11.2,11.2,0,0,0-5.012.157,11.89,11.89,0,0,0-3.978,1.975c-.009-.009.064-.083.213-.217a8.1,8.1,0,0,1,.682-.565,9.864,9.864,0,0,1,3.011-1.451,11.263,11.263,0,0,1,5.151-.265,10.449,10.449,0,0,1,5.854,3.091l-.271-.046a14.6,14.6,0,0,1,12.2-.681,14.227,14.227,0,0,1,6.172,4.813,14.374,14.374,0,0,1,2.678,6.439l-.233-.18a8.932,8.932,0,0,1,5.554,1.39,9.6,9.6,0,0,1,3.118,3.13,8.4,8.4,0,0,1,1.066,2.633,7.24,7.24,0,0,1,.1.741A.713.713,0,0,1,365.056,282.155Z" fill="#263238"/><path d="M327.632,325.357c-.037.029-.158-.2-.533-.353a2.575,2.575,0,0,0-1.7.051,4.835,4.835,0,0,1-1.287.236,2.026,2.026,0,0,1-1.437-.635c-.772-.8-1.065-1.965-1.794-2.767a1.666,1.666,0,0,0-1.341-.565,8.484,8.484,0,0,0-1.515.3,3.361,3.361,0,0,1-1.524.081,2.688,2.688,0,0,1-1.192-.609,2.838,2.838,0,0,1-.957-1.616c-.075-.445,0-.69.021-.686a5.882,5.882,0,0,1,.167.639,2.882,2.882,0,0,0,.991,1.391,2.4,2.4,0,0,0,1.051.477,3.029,3.029,0,0,0,1.333-.121,8.082,8.082,0,0,1,1.606-.345,2.146,2.146,0,0,1,1.721.71c.845.962,1.111,2.105,1.763,2.791a1.611,1.611,0,0,0,1.118.54,4.856,4.856,0,0,0,1.192-.165,2.578,2.578,0,0,1,1.87.116C327.591,325.072,327.654,325.356,327.632,325.357Z" fill="#263238"/><path d="M329.3,323.023a125.737,125.737,0,0,1-13.955-7.444,63.081,63.081,0,0,1,7.1,3.5A63.43,63.43,0,0,1,329.3,323.023Z" fill="#263238"/><path d="M326.411,326.692c.009.038-.2.1-.554.263-.177.078-.38.2-.657.31a2.257,2.257,0,0,1-1,.132,4.177,4.177,0,0,1-2.4-.924,3.327,3.327,0,0,1-.913-1.257,4.793,4.793,0,0,0-.7-1.309,3.366,3.366,0,0,0-2.634-.755,6.1,6.1,0,0,1-2.529-.242,2.348,2.348,0,0,1-1.278-1.172c-.163-.393-.105-.633-.081-.63.043-.005.057.221.253.542a2.331,2.331,0,0,0,1.232.932,6.311,6.311,0,0,0,2.385.112,3.709,3.709,0,0,1,3.019.878,4.9,4.9,0,0,1,.781,1.446,2.935,2.935,0,0,0,.77,1.11,4.01,4.01,0,0,0,2.128.919,2.985,2.985,0,0,0,1.559-.273C326.179,326.66,326.406,326.663,326.411,326.692Z" fill="#263238"/><path d="M216.62,233.3l25.145-3.729-12.022-17.032-6.448.381a11.5,11.5,0,0,0-9.884,6.929h0a11.5,11.5,0,0,0-.729,6.733Z" fill="#e8505b"/><path d="M216.62,233.3l25.145-3.729-12.022-17.032-6.448.381a11.5,11.5,0,0,0-9.884,6.929h0a11.5,11.5,0,0,0-.729,6.733Z" opacity="0.4"/><path d="M324.637,261.161c.259.72.542,1.572.828,2.592a7.949,7.949,0,0,1,.271,2.694,12.207,12.207,0,0,1-.566,3.327c-.414.953.547,1.914,1.362,1.437s2.019-3.077,1.944-6.424,3.34.665,4.61,2.1,5.41,5.709,6.162,5.669c1.1-.058,1.244-1.251-.059-2.659-1.318-1.425-4.91-5.906-4.117-6.54s7.148,6.792,7.148,6.792,1.1,1.806,2.045,1.1c1.7-1.267-5.654-8.652-6.37-9.338-.5-.477.338-1.2.845-.657.523.557,6.179,7.546,7.919,6.273,1.334-.977-5.989-6.132-6.357-8.234s5.156,4.474,6.393,3.488c.46-.367.753-.7-2.965-4.023-1.8-1.61-8.663-6.41-8.663-6.41l-20.639-59.1-15.939,9.128Z" fill="#ffbe9d"/><path d="M201.773,149.4l-23.064-27.524h0a15.923,15.923,0,0,0-1.128-2.745,8.6,8.6,0,0,0-5.441-4.538c-1.462-.32-3.137-.167-4.285-1.128-.513-.43-.855-1.043-1.392-1.442s-1.434-.476-1.777.1a1.555,1.555,0,0,0,.1,1.372,12.836,12.836,0,0,0,4,5.168c-2.163.657-5.251,1.651-5.251,1.651s-4.875-5.29-7.373-5.273,2.018,4.723,2.018,4.723-4-3.695-5.239-2.654,1.938,3.785,1.938,3.785a5.3,5.3,0,0,0-3.244-.908c-1.129.187-2.1,1.52-1.493,2.49a2.639,2.639,0,0,0,1.015.814l6.139,3.421a7.426,7.426,0,0,0,3.282,1.2c3.113.1,5.482-1.832,8.6-1.75,0,0,17.392,36.612,19.151,38.5s39.967,4.459,39.967,4.459L250.4,150.065Z" fill="#ffbe9d"/><path d="M271.046,348.827,294.6,359.085l-12.613,29.368c-2.731-1.376-1.839-18.989-1.839-18.989l-15.36-5.953Z" fill="#e8505b"/><g opacity="0.6"><path d="M282.774,359.836a1.305,1.305,0,0,1,1.725-.241,1.253,1.253,0,0,1,.254,1.707,1.377,1.377,0,0,1-1.828.247,1.3,1.3,0,0,1-.067-1.806" fill="#fff"/></g><path d="M294.6,359.085l-2.414-.941-11.19,28.51s.007,1.551.991,1.8Z" fill="#fff" opacity="0.6"/><path d="M279.793,369.876c.145.057.518-.632,1.282-1.14.751-.528,1.529-.624,1.528-.781.029-.144-.92-.3-1.834.332S279.648,369.85,279.793,369.876Z" fill="#263238"/><path d="M279.744,373.5c.125.093.635-.424,1.451-.65.809-.251,1.518-.092,1.573-.237.08-.125-.717-.585-1.726-.284S279.608,373.442,279.744,373.5Z" fill="#263238"/><path d="M282.679,376.836c.087-.117-.544-.624-1.488-.593s-1.544.567-1.45.679c.083.132.691-.123,1.466-.136C281.981,376.754,282.6,376.972,282.679,376.836Z" fill="#263238"/><path d="M276.443,368.131c.156,0,.241-.747.644-1.534.387-.795.93-1.309.839-1.437-.068-.127-.863.261-1.325,1.194S276.3,368.153,276.443,368.131Z" fill="#263238"/><path d="M273.258,365.935a3,3,0,0,0,.625-1.474,7.229,7.229,0,0,0,.188-1.742,7.559,7.559,0,0,0-.086-1.037,1.954,1.954,0,0,0-.155-.593.68.68,0,0,0-.735-.393.854.854,0,0,0-.6.487,2.1,2.1,0,0,0-.161.584,5.8,5.8,0,0,0-.079,1.05,5.613,5.613,0,0,0,.308,1.738c.338.953.774,1.415.823,1.378.075-.044-.232-.569-.455-1.486a6.383,6.383,0,0,1-.175-1.629,5.858,5.858,0,0,1,.1-.956c.052-.347.163-.612.336-.633.065-.006.088,0,.151.1a1.589,1.589,0,0,1,.112.434,8.3,8.3,0,0,1,.11.968,8.794,8.794,0,0,1-.065,1.656A11.158,11.158,0,0,0,273.258,365.935Z" fill="#263238"/><path d="M273.544,365.836c.044-.041-.348-.546-1.254-1a5.217,5.217,0,0,0-1.7-.491,5.281,5.281,0,0,0-1.054-.009,1.325,1.325,0,0,0-1.146.62.748.748,0,0,0,.147.79,2.171,2.171,0,0,0,.474.383,3.569,3.569,0,0,0,.99.426,3.683,3.683,0,0,0,1.789.025c1.008-.248,1.436-.772,1.393-.8a13.223,13.223,0,0,1-1.463.427,3.7,3.7,0,0,1-1.582-.128,3.3,3.3,0,0,1-.838-.392c-.293-.18-.494-.4-.412-.509.06-.147.4-.294.7-.307a5.279,5.279,0,0,1,.953-.022,5.772,5.772,0,0,1,1.59.345C273.018,365.521,273.489,365.9,273.544,365.836Z" fill="#263238"/><path d="M252.906,389.172l9.741,20.41,3.051,18.364a2.318,2.318,0,0,0,2.82,1.875h0a2.3,2.3,0,0,0,1.611-1.38c1.791-4.434,8.3-20.777,7.5-22.231-.923-1.683-8.847-22.211-8.847-22.211Z" fill="#e8505b"/><path d="M268.518,429.821l8.486-25,.393.874a3.491,3.491,0,0,1,.173,2.4c-.618,2.128-2.453,7.966-7.378,20.32a2.316,2.316,0,0,1-1.674,1.407Z" fill="#fff" opacity="0.6"/><g opacity="0.6"><path d="M269.78,400.067a1.4,1.4,0,0,0,.4,1.828,1.348,1.348,0,0,0,1.814-.382,1.477,1.477,0,0,0-.434-1.932,1.4,1.4,0,0,0-1.844.605" fill="#fff"/></g><path d="M269.181,418.689a5,5,0,0,0-5.109-.178c-.04-.042.149-.32.6-.6a3.691,3.691,0,0,1,3.951.137C269.056,418.359,269.225,418.649,269.181,418.689Z" fill="#263238"/><path d="M268.954,422.112a18.8,18.8,0,0,0-2.226-.066,18.728,18.728,0,0,0-2.131.646c-.107-.079.689-.963,2.066-1.138A2.569,2.569,0,0,1,268.954,422.112Z" fill="#263238"/><path d="M270.325,413.919a23.364,23.364,0,0,0-3.428-.333,23.24,23.24,0,0,0-3.381.662,6.338,6.338,0,0,1,6.809-.329Z" fill="#263238"/><path d="M267.882,407.468c0,.148-1.353.184-2.86.8-1.516.593-2.522,1.5-2.624,1.39a5.751,5.751,0,0,1,5.484-2.187Z" fill="#263238"/><path d="M265.174,401.4a7.362,7.362,0,0,0-5.426,2.668c-.053-.028.056-.388.408-.877a5.054,5.054,0,0,1,4.075-2C264.832,401.211,265.184,401.345,265.174,401.4Z" fill="#263238"/><path d="M261.693,400.987a1.97,1.97,0,0,1-.379-.768,5.942,5.942,0,0,1-.3-2.322,2.628,2.628,0,0,1,.515-1.611.929.929,0,0,1,1.042-.241,1.512,1.512,0,0,1,.745.784,3.276,3.276,0,0,1-1.376,3.941,3.8,3.8,0,0,1-4.218-.282,1.319,1.319,0,0,1-.506-.975.913.913,0,0,1,.673-.833,3.244,3.244,0,0,1,1.677.1,6.658,6.658,0,0,1,2.128.97c.453.318.656.548.637.57a10.581,10.581,0,0,0-2.845-1.2,3.027,3.027,0,0,0-1.464-.047.488.488,0,0,0-.37.451.907.907,0,0,0,.371.622,3.391,3.391,0,0,0,3.66.2,2.843,2.843,0,0,0,1.216-3.328,1.106,1.106,0,0,0-.5-.57.505.505,0,0,0-.577.125,2.379,2.379,0,0,0-.461,1.356A8.782,8.782,0,0,0,261.693,400.987Z" fill="#263238"/><path d="M285.729,351.32l-26.706-17.976,8.838-86.793-25.3-14.773-23.133-5.361s-9.662,20.1-13.958,32.966c-9.138,27.365-15.552,37.172-14.086,57.008.463,6.278,23.647,21.982,38.287,30.707a46.167,46.167,0,0,0,.777,5.2c5,22.616,20.274,52.694,20.274,52.694l23.209-10.79-7.489-25.646,7.8,4.549Zm-57.406-55.965,3.116-13.912c-.659,8.845-1.261,18.073-1.691,26.923A27.5,27.5,0,0,1,228.323,295.355Z" fill="#263238"/><path d="M250.725,404.989a2.341,2.341,0,0,1-.18-.366c-.117-.268-.277-.63-.48-1.095-.421-.991-1.023-2.413-1.795-4.233-1.541-3.682-3.748-9.021-6.4-15.648-2.641-6.632-5.787-14.53-8.954-23.428-.79-2.225-1.564-4.519-2.29-6.887-.322-1.2-.726-2.381-.937-3.65-.061-.313-.132-.627-.184-.942l-.111-.947q-.105-.949-.212-1.908-.408-3.834-.665-7.813-.126-1.987-.208-4.006c-.047-1.34-.108-2.71-.031-4.072.392-10.906,1.31-21.243,2.063-30.653.786-9.4,1.494-17.868,2.09-24.988.576-7.114.978-12.875,1.207-16.859.124-1.992.193-3.539.24-4.589.027-.506.049-.9.064-1.193a2.438,2.438,0,0,1,.04-.407,2.581,2.581,0,0,1,.011.408c0,.292-.009.688-.015,1.2-.015,1.052-.052,2.6-.147,4.6-.17,3.989-.519,9.757-1.05,16.876-.565,7.123-1.237,15.594-1.984,25-.728,9.407-1.631,19.755-2.022,30.626-.078,1.359-.017,2.7.03,4.043s.122,2.673.205,3.994q.249,3.965.655,7.793.106.955.21,1.9l.109.945c.051.309.12.612.179.917.2,1.222.6,2.412.918,3.6.717,2.356,1.484,4.647,2.267,6.871,3.139,8.893,6.25,16.8,8.849,23.45l6.257,15.7,1.708,4.268c.185.472.329.841.435,1.114A2.418,2.418,0,0,1,250.725,404.989Z" fill="#455a64"/><path d="M232.875,248.373c-.022.026-.235-.147-.609-.494a6.313,6.313,0,0,1-1.129-1.815A19.611,19.611,0,0,1,230,239.178a58.544,58.544,0,0,1,.331-6.954,16.7,16.7,0,0,1,.4-2.853,16.4,16.4,0,0,1-.052,2.88c-.089,1.772-.233,4.22-.184,6.917a22.2,22.2,0,0,0,.968,6.768,7.544,7.544,0,0,0,.95,1.818C232.728,248.123,232.9,248.346,232.875,248.373Z" fill="#455a64"/><path d="M222.887,227.715a5.9,5.9,0,0,1,.2,2.429,11.169,11.169,0,0,1-6.388,9.373,5.881,5.881,0,0,1-2.332.7c-.024-.082.877-.315,2.174-1.016a11.819,11.819,0,0,0,6.2-9.093C222.914,228.648,222.8,227.723,222.887,227.715Z" fill="#455a64"/><path d="M264.386,278.176a1,1,0,0,1,0,.265c-.017.2-.038.456-.065.771-.072.715-.171,1.706-.3,2.963-.285,2.61-.689,6.321-1.187,10.89-1.044,9.222-2.48,21.9-4.065,35.9a65.429,65.429,0,0,0,1.315,19.7,68.675,68.675,0,0,0,2.418,8.3c.9,2.564,1.735,4.954,2.5,7.14l3.588,10.349c.4,1.2.722,2.142.952,2.823l.235.738a1.053,1.053,0,0,1,.065.257,1.064,1.064,0,0,1-.112-.24c-.074-.19-.167-.427-.283-.722-.25-.673-.6-1.606-1.039-2.791l-3.737-10.3c-.783-2.179-1.639-4.562-2.557-7.119a67.519,67.519,0,0,1-2.476-8.343,65.035,65.035,0,0,1-1.364-19.846c1.562-14.043,3.113-26.71,4.211-35.9.564-4.562,1.021-8.267,1.343-10.872.166-1.254.3-2.242.39-2.954.047-.314.085-.566.114-.767A1.116,1.116,0,0,1,264.386,278.176Z" fill="#455a64"/><path d="M219.431,226.25l4.1-10.467,9.347,13.939-12.463-3.116" fill="#ffbe9d"/><path d="M317.253,194.783l-11.1-24.871c-1.326-4-3.814-4.62-5.9-6.94L272.467,147.3c-20.255-8.3-31.283,19.527-31.283,19.527l-18.41,41.992c-21.649,7.177-6.32,23.8-6.32,23.8s-5.89-10.236-.1-13.929c6.064-3.867,12.787,6.321,19.246,16,7.626,11.424,32.406,18.845,32.406,18.845,2.9-3.062,2.088-13.751,4.357-19.488.72-1.819,17.88-41.566,17.88-41.566L296.9,208.6s8.527-10,12.66-11.586A46.886,46.886,0,0,1,317.253,194.783Z" fill="#e8505b"/><path d="M268.008,212.458a3.57,3.57,0,0,1-.841.588,15.873,15.873,0,0,1-2.529,1.2,18.1,18.1,0,0,1-17.556-2.71,15.767,15.767,0,0,1-2.05-1.9,3.635,3.635,0,0,1-.625-.813c.069-.066,1,1.065,2.886,2.438a18.808,18.808,0,0,0,17.228,2.659C266.73,213.172,267.962,212.375,268.008,212.458Z" fill="#263238"/><path d="M221.95,173.019h0l17.152,1.619,27.438-29-16.137-.554-28.737,2.836A74.447,74.447,0,0,1,221.95,173.019Z" fill="#e8505b"/><path d="M245.773,157.739a2.559,2.559,0,0,1-.21.531c-.181.387-.409.878-.689,1.48l-2.545,5.435c-2.133,4.6-4.963,11-8.03,18.1s-5.858,13.527-7.967,18.139c-1.053,2.306-1.922,4.165-2.547,5.438l-.727,1.462a2.459,2.459,0,0,1-.284.5,2.551,2.551,0,0,1,.193-.538l.642-1.5c.594-1.359,1.408-3.223,2.4-5.5,2.027-4.71,4.785-11.115,7.832-18.193,3.068-7.1,5.952-13.487,8.168-18.049,1.1-2.283,2.025-4.118,2.69-5.371l.772-1.439A2.4,2.4,0,0,1,245.773,157.739Z" fill="#263238"/><path d="M298.12,166.173c.048.084-1.015.639-2.466,1.874a17.9,17.9,0,0,0-2.318,2.4,18.281,18.281,0,0,0-3.533,7.29,17.906,17.906,0,0,0-.445,3.3c-.071,1.9.153,3.082.057,3.1a2.74,2.74,0,0,1-.209-.816,6.349,6.349,0,0,1-.134-.979,10.752,10.752,0,0,1-.066-1.309,16.055,16.055,0,0,1,.351-3.4,17.317,17.317,0,0,1,3.624-7.478,16.073,16.073,0,0,1,2.45-2.38,10.885,10.885,0,0,1,1.068-.76,6.462,6.462,0,0,1,.851-.5A2.721,2.721,0,0,1,298.12,166.173Z" fill="#263238"/><path d="M302.913,126.341l-16.091,30.077a10.609,10.609,0,0,1-13.688,4.679h0a10.609,10.609,0,0,1-5.045-14.641c1.517-2.869,2.776-5.211,2.776-5.211s-7-4.534-3.725-12.093c2.919-6.744,13.636-25.779,15.911-29.8l13.562,6.069A15.242,15.242,0,0,1,302.913,126.341Z" fill="#ffbe9d"/><path d="M270.9,141.131a19.155,19.155,0,0,0,11.047,1.6s-4.738,4.374-11.936.34Z" fill="#eb996e"/><path d="M276.069,117.083a1.177,1.177,0,0,0,.55,1.547,1.126,1.126,0,0,0,1.54-.473,1.177,1.177,0,0,0-.549-1.547A1.126,1.126,0,0,0,276.069,117.083Z" fill="#263238"/><path d="M276.13,116.126c.071.2,1.153-.039,2.307.481,1.16.5,1.742,1.477,1.931,1.392.089-.036.067-.349-.182-.783a3.231,3.231,0,0,0-1.468-1.287,3.1,3.1,0,0,0-1.915-.208C276.326,115.834,276.092,116.034,276.13,116.126Z" fill="#263238"/><path d="M286.877,122.4a1.175,1.175,0,0,0,.551,1.546,1.124,1.124,0,0,0,1.539-.472,1.176,1.176,0,0,0-.549-1.547A1.125,1.125,0,0,0,286.877,122.4Z" fill="#263238"/><path d="M287.389,121.423c.071.2,1.154-.038,2.307.482,1.16.5,1.742,1.476,1.931,1.391.089-.035.068-.348-.182-.783a3.23,3.23,0,0,0-1.468-1.286,3.1,3.1,0,0,0-1.914-.209C287.586,121.132,287.352,121.331,287.389,121.423Z" fill="#263238"/><path d="M279.363,128.114a8.406,8.406,0,0,0-1.725-1.178c-.282-.163-.535-.346-.494-.57.026-.244.291-.507.588-.786l1.878-1.856a42.244,42.244,0,0,0,4.588-5,42.489,42.489,0,0,0-4.98,4.618q-.966.987-1.847,1.886a1.869,1.869,0,0,0-.671,1.089.815.815,0,0,0,.292.649,2.192,2.192,0,0,0,.47.293A8.229,8.229,0,0,0,279.363,128.114Z" fill="#263238"/><path d="M282.4,130.435c-.183-.1-.747,1.158-2.218,1.567s-2.745-.325-2.833-.154c-.053.071.188.376.746.644a3.416,3.416,0,0,0,2.333.2,2.98,2.98,0,0,0,1.779-1.35C282.495,130.839,282.494,130.466,282.4,130.435Z" fill="#263238"/><path d="M289.117,116.762c-.027.365,1.193.732,2.476,1.5,1.3.744,2.213,1.63,2.519,1.429.14-.1.082-.48-.224-.981a5.031,5.031,0,0,0-3.8-2.233C289.5,116.456,289.135,116.591,289.117,116.762Z" fill="#263238"/><path d="M278.051,112.972c.086.353,1,.437,1.966.853.977.382,1.689.967,2,.776.141-.1.131-.417-.112-.823a3.1,3.1,0,0,0-3.194-1.313C278.251,112.584,278.019,112.8,278.051,112.972Z" fill="#263238"/><path d="M297.853,130.849c.153,0,5.849.784,3.385,5.85s-7.042,1.547-6.98,1.4S297.853,130.849,297.853,130.849Z" fill="#ffbe9d"/><path d="M296.739,136.93c.03,0,.058.105.174.246a.98.98,0,0,0,.653.334,2.428,2.428,0,0,0,1.964-1.467,3.238,3.238,0,0,0,.367-1.384,1.131,1.131,0,0,0-.334-1,.5.5,0,0,0-.639-.012c-.136.109-.153.225-.184.221s-.068-.138.075-.327a.623.623,0,0,1,.353-.221.743.743,0,0,1,.551.109,1.379,1.379,0,0,1,.54,1.234,3.34,3.34,0,0,1-.381,1.561,2.546,2.546,0,0,1-2.351,1.561,1.047,1.047,0,0,1-.742-.527C296.689,137.057,296.717,136.931,296.739,136.93Z" fill="#eb996e"/><path d="M300.791,131.955a2.96,2.96,0,0,0-3.042.16c-.663.585-1.108,1.383-1.77,1.969a1.991,1.991,0,0,1-2.414.375,1.731,1.731,0,0,1-.546-1.652,4.756,4.756,0,0,1,.726-1.664c1.377-2.265,2.947-4.419,4.125-6.793a13.531,13.531,0,0,0,1.61-7.668,7.4,7.4,0,0,0-4.5-6.07c-1.655-.586-3.493-.408-5.179-.9a6.88,6.88,0,0,1-4.438-4.076,13.11,13.11,0,0,0-.661-1.137c.056-.125.654-1.145,1.252-1.347,4.451-1.5,10.488.223,14.178,3.131a16.428,16.428,0,0,1,6.319,12.285c.045,4.7-2.911,9.88-5.661,13.383" fill="#263238"/><path d="M300.84,131.447c1.406-2.394,3.691-4.129,5.434-6.289s2.941-5.206,1.7-7.69c-.424-.848-1.1-1.559-1.457-2.439a12.045,12.045,0,0,1-.494-2.809,9.785,9.785,0,0,0-4.842-7.03c-1.78-.993-3.834-1.4-5.638-2.348-2.858-1.5-4.948-4.286-7.95-5.473a3.827,3.827,0,0,0-3.114-.094,1.871,1.871,0,0,0-.77,2.688,1.627,1.627,0,0,0-2.245-1.086,2.465,2.465,0,0,0-1.271,2.41,5.332,5.332,0,0,0,1.091,2.645,13.464,13.464,0,0,0,7.7,5.3l6.9-.538,5.659,4.194,4.189,6.666-7.6,9.868Z" fill="#263238"/><path d="M257.652,92.1a24.379,24.379,0,1,0-33.272,24.253c.186,2.882.4,6.137.4,6.137L246.1,121.11s-.094-3.453-.245-6.531A24.368,24.368,0,0,0,257.652,92.1Z" fill="#e8505b"/><path d="M238.382,121.507s0-.1,0-.3.024-.505.042-.884c.045-.777.108-1.923.229-3.4s.293-3.275.626-5.35a36.152,36.152,0,0,1,1.77-6.913,23.193,23.193,0,0,1,1.765-3.77,4.5,4.5,0,0,1,1.567-1.6,2.511,2.511,0,0,1,2.315-.074,1.659,1.659,0,0,1,.832.913,1.7,1.7,0,0,1-.021,1.255,3.471,3.471,0,0,1-1.774,1.741,6.67,6.67,0,0,1-5.081-.031,6.758,6.758,0,0,1-3.7-3.838,5.1,5.1,0,0,1-.325-2.8,2.189,2.189,0,0,1,2.1-1.833,1.574,1.574,0,0,1,1.294.778,2.207,2.207,0,0,1,.292,1.487,4.766,4.766,0,0,1-1.554,2.528,7.276,7.276,0,0,1-5.565,2.012,6.336,6.336,0,0,1-4.93-3.2,3.681,3.681,0,0,1-.355-2.936,1.864,1.864,0,0,1,1-1.145,1.825,1.825,0,0,1,1.507.041,2.43,2.43,0,0,1,1.1,1,3.8,3.8,0,0,1,.461,1.377,7.014,7.014,0,0,1-.19,2.805,7.255,7.255,0,0,1-3.165,4.3,7.39,7.39,0,0,1-4.99,1.017,3.866,3.866,0,0,1-2.265-1.019,1.888,1.888,0,0,1-.286-2.335,1.59,1.59,0,0,1,1.058-.6,2.3,2.3,0,0,1,1.176.15,3.536,3.536,0,0,1,1.6,1.573c.7,1.28,1.27,2.531,1.846,3.723,2.262,4.777,3.9,8.728,5.009,11.468.552,1.371.964,2.441,1.241,3.168.132.356.235.631.308.83s.1.286.1.286-.046-.092-.124-.275-.191-.468-.335-.819c-.3-.731-.735-1.789-1.293-3.146-1.138-2.724-2.808-6.66-5.092-11.421-.578-1.182-1.167-2.446-1.854-3.7a3.312,3.312,0,0,0-1.488-1.468,1.461,1.461,0,0,0-1.672,2.39,3.617,3.617,0,0,0,2.12.936,7.117,7.117,0,0,0,4.8-.992,6.978,6.978,0,0,0,3.035-4.141,6.729,6.729,0,0,0,.179-2.686,2.648,2.648,0,0,0-1.391-2.155,1.532,1.532,0,0,0-1.268-.038,1.569,1.569,0,0,0-.836.972,3.389,3.389,0,0,0,.338,2.7,6.043,6.043,0,0,0,4.7,3.047,6.981,6.981,0,0,0,5.332-1.931,4.485,4.485,0,0,0,1.466-2.355,1.918,1.918,0,0,0-.25-1.288,1.278,1.278,0,0,0-1.054-.64,1.711,1.711,0,0,0-1.184.469,2.1,2.1,0,0,0-.623,1.134,4.83,4.83,0,0,0,.309,2.633,6.482,6.482,0,0,0,3.536,3.684,6.416,6.416,0,0,0,4.863.047,3.218,3.218,0,0,0,1.647-1.6,1.438,1.438,0,0,0-.686-1.854,2.273,2.273,0,0,0-2.085.063,4.265,4.265,0,0,0-1.487,1.515,23.072,23.072,0,0,0-1.763,3.72,36.382,36.382,0,0,0-1.8,6.866c-.347,2.066-.535,3.864-.675,5.333-.123,1.462-.218,2.6-.284,3.39l-.073.882C238.4,121.406,238.382,121.507,238.382,121.507Z" fill="#263238"/><path d="M244.713,125.164l-18.307,1.183a1.377,1.377,0,0,1-1.463-1.285h0a1.377,1.377,0,0,1,1.285-1.463l18.308-1.183A1.376,1.376,0,0,1,246,123.7h0A1.377,1.377,0,0,1,244.713,125.164Z" fill="#263238"/><path d="M244.791,126.364l-18.308,1.183a1.376,1.376,0,1,0,.178,2.747l2.009-.129,2.994,4.9a1.77,1.77,0,0,0,1.624.843l6.541-.423a1.769,1.769,0,0,0,1.509-1.062L243.6,129.2l1.366-.089a1.376,1.376,0,1,0-.177-2.747Z" fill="#263238"/><g opacity="0.2"><path d="M216.693,79.179a17.941,17.941,0,0,1,4.663-3.554,12.93,12.93,0,0,1,3.679-1.331c.914-.155,1.444-.1,1.5.091.134.435-1.668,1.208-4.045,3.029a20.046,20.046,0,0,0-7.85,20.235c.528,2.948,1.337,4.734.944,4.964-.171.1-.6-.213-1.17-.945A12.94,12.94,0,0,1,212.6,98.2a17.928,17.928,0,0,1-1.047-5.768,18.98,18.98,0,0,1,1.249-7.143" fill="#fff"/></g><g opacity="0.2"><path d="M232.454,75.056c-1.543.085-2.93-.248-3.141-1.055-.094-.4.163-.85.7-1.223a4.891,4.891,0,0,1,4.6-.273c.576.306.885.723.839,1.131" fill="#fff"/></g><path d="M241.025,134.881c-.019.047-.492-.134-1.282-.306a10.2,10.2,0,0,0-6.173.579c-.744.315-1.176.581-1.2.539a3.74,3.74,0,0,1,1.115-.732,8.93,8.93,0,0,1,6.312-.592A3.741,3.741,0,0,1,241.025,134.881Z" fill="#455a64"/><path d="M243.645,129.26c.006.082-3.3.363-7.382.627s-7.4.41-7.4.328,3.3-.363,7.383-.627S243.64,129.177,243.645,129.26Z" fill="#455a64"/><path d="M242.64,131.505a10.353,10.353,0,0,1-1.791.3c-1.112.142-2.651.306-4.356.44s-3.251.214-4.371.248a10.469,10.469,0,0,1-1.816-.016,11.535,11.535,0,0,1,1.8-.2l4.36-.334,4.357-.353A11.493,11.493,0,0,1,242.64,131.505Z" fill="#455a64"/><path d="M110.8,253.976l3.976,6.369s16.96-15.608,33.786-11.2C148.561,249.149,133.44,236.327,110.8,253.976Z" fill="#e8505b"/><path d="M148.561,249.149s12.45-13.519,30.705-10.435l4.979.75-1.59-2.876S150.9,225.714,148.561,249.149Z" fill="#e8505b"/><path d="M122.283,203.564s-24.938-4.291-41.295,4.558l25.972,48.9s21.259-20.492,41.6-7.873Z" fill="#f5f5f5"/><path d="M122.283,203.564a1.316,1.316,0,0,1,.133.2c.093.153.216.355.373.616l1.437,2.429,5.406,9.257,19.12,32.974a.22.22,0,0,1-.08.3.225.225,0,0,1-.227,0,27.6,27.6,0,0,0-9.56-3.67,29.676,29.676,0,0,0-5.39-.374,33.253,33.253,0,0,0-5.522.695A47.464,47.464,0,0,0,107.346,257l-.214.2a.247.247,0,0,1-.351-.006.278.278,0,0,1-.041-.056l-25.932-48.92a.2.2,0,0,1,.077-.273l.006,0a50.15,50.15,0,0,1,16.622-4.92,83.689,83.689,0,0,1,13.3-.579c3.681.122,6.553.418,8.5.658.974.118,1.716.232,2.215.315l.566.1a.816.816,0,0,1,.187.046,1.257,1.257,0,0,1-.2-.016l-.566-.069c-.5-.062-1.246-.157-2.22-.255-1.949-.2-4.819-.459-8.492-.546a85.511,85.511,0,0,0-13.253.672A50.1,50.1,0,0,0,81.085,208.3l.083-.276L107.179,256.9l-.392-.062.223-.207a52.556,52.556,0,0,1,9.943-6.976,41.621,41.621,0,0,1,10.919-4.144,33.6,33.6,0,0,1,5.609-.7,30.064,30.064,0,0,1,5.483.39,28.01,28.01,0,0,1,9.713,3.753l-.306.3c-7.786-13.586-14.317-24.981-18.912-33l-5.315-9.34-1.395-2.483-.354-.644A1.5,1.5,0,0,1,122.283,203.564Z" fill="#263238"/><path d="M161.482,193.53s-18.864-12.023-38.879,10.034l26.279,45.585s5.363-18.5,36.736-12.067Z" fill="#f5f5f5"/><path d="M161.482,193.53a1.04,1.04,0,0,1,.126.191l.346.59,1.323,2.321c1.159,2.062,2.839,5.05,4.968,8.839l17.565,31.505a.218.218,0,0,1-.085.3.214.214,0,0,1-.141.025h-.01l-4.671-.768a20.657,20.657,0,0,0-2.413-.268l-2.463-.2a18.32,18.32,0,0,0-2.5-.06l-2.544.032c-.854.019-1.7.174-2.565.254a17.967,17.967,0,0,0-2.579.39l-2.578.583-2.522.882c-.846.293-1.624.759-2.446,1.132a7.567,7.567,0,0,0-1.178.675l-1.149.736c-.758.507-1.437,1.13-2.153,1.705a22.493,22.493,0,0,0-1.891,2.024,15.868,15.868,0,0,0-2.8,4.8l0,.013a.249.249,0,0,1-.316.152.239.239,0,0,1-.133-.11l-1.06-1.838-25.185-43.767a.209.209,0,0,1,.026-.245,44.125,44.125,0,0,1,14.236-10.7,28.319,28.319,0,0,1,13.429-2.52,27.223,27.223,0,0,1,8.59,1.925,20.357,20.357,0,0,1,2.1.988l.515.3a.945.945,0,0,1,.163.117,1.023,1.023,0,0,1-.181-.089l-.527-.271c-.47-.229-1.171-.566-2.118-.927a27.868,27.868,0,0,0-8.557-1.8,28.234,28.234,0,0,0-13.276,2.589A43.981,43.981,0,0,0,122.758,203.7l.027-.245,25.253,43.728c.362.63.724,1.258,1.059,1.838l-.454.055a16.258,16.258,0,0,1,2.891-4.975,22.685,22.685,0,0,1,1.94-2.074c.732-.59,1.43-1.227,2.205-1.745l1.176-.752a7.8,7.8,0,0,1,1.2-.688c.839-.381,1.635-.855,2.5-1.152l2.568-.9,2.618-.589a18.38,18.38,0,0,1,2.615-.391c.871-.081,1.733-.235,2.6-.253l2.571-.028a18.505,18.505,0,0,1,2.529.066l2.482.2a20.711,20.711,0,0,1,2.43.276l4.7.785-.235.32-17.382-31.553-4.869-8.912q-.823-1.53-1.273-2.365c-.135-.258-.241-.459-.321-.613A1.361,1.361,0,0,1,161.482,193.53Z" fill="#263238"/><path d="M88.012,184.617l28.124,54.152s22.857-1,32.532,10.138L122.6,203.564S107.319,184.617,88.012,184.617Z" fill="#f5f5f5"/><path d="M88.012,184.617s.232,0,.714.023l2.168.088c.239.015.5.017.76.045l.821.135,1.88.313a16.536,16.536,0,0,1,2.154.514c.755.23,1.587.385,2.413.714,6.721,2.238,15.735,7.659,23.84,16.987l.015.02,0,.006,26.1,45.322a.248.248,0,0,1-.39.3l-.013-.013-1.1-1.1a23.918,23.918,0,0,0-7.2-4.758,41.583,41.583,0,0,0-8.045-2.635A67.045,67.045,0,0,0,116.147,239h-.007a.232.232,0,0,1-.21-.126L95.763,199.766c-2.45-4.772-4.4-8.563-5.739-11.181-.653-1.278-1.159-2.27-1.513-2.961-.161-.321-.287-.57-.381-.757a2.313,2.313,0,0,1-.118-.25c.006,0,.057.1.152.27.1.192.239.447.415.776l1.579,2.992,5.879,11.188,20.305,38.818-.216-.124a67.274,67.274,0,0,1,16.115,1.566,41.882,41.882,0,0,1,8.14,2.662,24.357,24.357,0,0,1,7.343,4.853l1.131,1.126-.4.287-26.026-45.366.018.027a65.893,65.893,0,0,0-12.309-11.14,47.412,47.412,0,0,0-11.29-5.882c-.818-.336-1.642-.5-2.39-.735a16.535,16.535,0,0,0-2.136-.538l-1.866-.339-.816-.149c-.258-.032-.5-.039-.734-.059Z" fill="#263238"/><path d="M175.8,338.2l.6,1a6.881,6.881,0,0,0,2.842,2.618l1.05.519-1,.6a6.868,6.868,0,0,0-2.618,2.842l-.519,1.05-.6-1a6.873,6.873,0,0,0-2.842-2.617l-1.05-.519,1-.6a6.875,6.875,0,0,0,2.617-2.843Z" fill="#e8505b"/><path d="M120.355,131.934l.6,1a6.866,6.866,0,0,0,2.842,2.617l1.05.52-1,.6a6.875,6.875,0,0,0-2.617,2.843l-.519,1.049-.6-1a6.872,6.872,0,0,0-2.842-2.617l-1.05-.52,1-.6a6.868,6.868,0,0,0,2.618-2.842Z" fill="#e8505b"/><path d="M376.941,167.521l.6,1a6.877,6.877,0,0,0,2.843,2.618l1.05.519-1,.6a6.866,6.866,0,0,0-2.617,2.842l-.519,1.05-.6-1a6.875,6.875,0,0,0-2.843-2.617l-1.049-.519,1-.6a6.872,6.872,0,0,0,2.617-2.842Z" fill="#e8505b"/><path d="M346.64,351.153l.6,1a6.872,6.872,0,0,0,2.842,2.617l1.05.519-1,.6a6.872,6.872,0,0,0-2.617,2.842l-.519,1.05-.6-1a6.871,6.871,0,0,0-2.843-2.618l-1.049-.519,1-.6a6.877,6.877,0,0,0,2.618-2.843Z" fill="#e8505b"/><path d="M352.408,389.743l.289.116a1.835,1.835,0,0,0,1.023.1l.307-.058-.117.289a1.835,1.835,0,0,0-.1,1.023l.058.306-.289-.116a1.824,1.824,0,0,0-1.023-.1l-.306.058.116-.289a1.817,1.817,0,0,0,.1-1.023Z" fill="#e8505b"/><path d="M369.855,128.811l.289.117a1.835,1.835,0,0,0,1.023.1l.306-.058-.116.289a1.833,1.833,0,0,0-.1,1.023l.058.306-.289-.116a1.816,1.816,0,0,0-1.023-.1l-.306.058.116-.289a1.826,1.826,0,0,0,.1-1.023Z" fill="#e8505b"/><path d="M131.63,104.987l.289.116a1.824,1.824,0,0,0,1.023.1l.306-.058-.116.289a1.826,1.826,0,0,0-.1,1.023l.058.306-.289-.116a1.835,1.835,0,0,0-1.023-.1l-.306.058.116-.289a1.833,1.833,0,0,0,.1-1.023Z" fill="#e8505b"/><path d="M161.031,308.158l.289.117a1.835,1.835,0,0,0,1.023.1l.307-.058-.117.289a1.833,1.833,0,0,0-.1,1.023l.058.306-.289-.116a1.816,1.816,0,0,0-1.023-.1l-.306.058.116-.289a1.818,1.818,0,0,0,.1-1.023Z" fill="#e8505b"/><path d="M192.906,386.69s-.087.1-.272.291l-.832.826-3.231,3.147-11.986,11.561.047-.118c.57,12.548,1.344,29.6,2.206,48.568l.019.429-.357-.238-4.329-2.894-27.445-18.374-.056-.037-.021-.063c-4.1-12.229-7.549-22.544-9.987-29.823-1.2-3.62-2.145-6.485-2.8-8.464q-.47-1.452-.727-2.246c-.075-.244-.134-.434-.179-.58a1.055,1.055,0,0,1-.05-.2,1.027,1.027,0,0,1,.081.189c.052.144.121.33.209.569.184.524.446,1.268.784,2.227l2.9,8.429,10.136,29.772-.077-.1,27.47,18.338,4.327,2.894-.338.19c-.812-18.968-1.542-36.024-2.08-48.573l0-.071.051-.048,12.083-11.461c1.417-1.332,2.522-2.369,3.288-3.088l.861-.794C192.8,386.772,192.906,386.69,192.906,386.69Z" fill="#e8505b"/><path d="M180.13,445.254l-.087,2.831,2.283,1.677-2.72.792-.89,2.689-1.593-2.342-2.833-.015,1.735-2.239-.861-2.7,2.666.958Z" fill="#e8505b"/><path d="M147.071,426.039l.055,1.832,1.541.994-1.726.618-.469,1.772-1.122-1.45-1.83.1,1.033-1.515-.662-1.71,1.76.514Z" fill="#e8505b"/><path d="M132.83,385.112l1.383,1.775,2.246-.132-1.261,1.863.82,2.1-2.162-.624-1.739,1.427-.075-2.249-1.9-1.213,2.116-.766Z" fill="#e8505b"/><path d="M191.524,383.337l1.383,1.775,2.246-.132-1.261,1.863.82,2.1-2.162-.624-1.739,1.427-.075-2.249-1.9-1.213,2.115-.766Z" fill="#e8505b"/><path d="M176.115,400.483l.882,1.133,1.434-.085-.8,1.189.523,1.337-1.38-.4-1.11.911-.048-1.435-1.209-.774,1.35-.489Z" fill="#e8505b"/><circle cx="19.945" cy="19.945" r="19.945" transform="translate(103.248 284.965)" fill="#e8505b"/><g opacity="0.3"><path d="M120.6,311.135a3.253,3.253,0,1,1-3.253-3.253A3.253,3.253,0,0,1,120.6,311.135Z" fill="#fff"/></g><g opacity="0.3"><path d="M115.986,301.748a1.892,1.892,0,1,1-1.892-1.892A1.892,1.892,0,0,1,115.986,301.748Z" fill="#fff"/></g><path d="M103.844,309.76c.089.346-17.07,16.81-12.647,20.318s23.029-5.491,38.891-18.3,30.35-28.368,26.384-32.486-23.787,8.075-23.787,8.075l2.369,1.51s11.985-7.689,15.775-4.7-7.015,14.641-22.267,25.775-29.987,18.949-32.275,15.9,8.507-13.225,8.507-13.225Z" fill="#e8505b"/><g opacity="0.3"><path d="M103.844,309.76c.089.346-17.07,16.81-12.647,20.318s23.029-5.491,38.891-18.3,30.35-28.368,26.384-32.486-23.787,8.075-23.787,8.075l2.369,1.51s11.985-7.689,15.775-4.7-7.015,14.641-22.267,25.775-29.987,18.949-32.275,15.9,8.507-13.225,8.507-13.225Z"/></g><g opacity="0.3"><path d="M112.2,290.86c.161.193-1.191,1.341-2.721,3.643a18.354,18.354,0,0,0-.4,20.171c1.437,2.362,2.742,3.562,2.573,3.748-.1.139-1.7-.786-3.478-3.138a17.192,17.192,0,0,1-2.422-4.539A17.3,17.3,0,0,1,106,298.3a17.231,17.231,0,0,1,2.6-4.439C110.467,291.579,112.106,290.717,112.2,290.86Z" fill="#fff"/></g><circle cx="16.452" cy="16.452" r="16.452" transform="translate(319.705 117.603) rotate(-43.779)" fill="#e8505b"/><g opacity="0.4"><path d="M348.328,111.8a2.683,2.683,0,1,1,2.619,2.746A2.683,2.683,0,0,1,348.328,111.8Z"/></g><g opacity="0.4"><path d="M353.694,118.062a1.561,1.561,0,1,1,1.524,1.6A1.561,1.561,0,0,1,353.694,118.062Z"/></g><g opacity="0.4"><path d="M351.6,122.855a.576.576,0,1,1-.589.562A.577.577,0,0,1,351.6,122.855Z"/></g></g></svg>