<svg xmlns="http://www.w3.org/2000/svg" width="312.346" height="56.136" viewBox="0 0 312.346 56.136"><path d="M7.5.45A3.9,3.9,0,0,1,4.575-.6,4.192,4.192,0,0,1,3.55-3.65V-31.2q0-4.05,4.05-4.05H24.7q3.05,0,3.05,3,0,3.05-3.05,3.05H11.3v8.6H23.6q3.1,0,3.1,3,0,3.05-3.1,3.05H11.3v10.9Q11.3.45,7.5.45Zm33.65.1Q32.3.55,32.3-9.3V-31.85q0-3.85,3.8-3.85,3.75,0,3.75,3.85V-9.6a4.431,4.431,0,0,0,.875,3.025A2.972,2.972,0,0,0,43.05-5.6a5.86,5.86,0,0,0,.775-.05,5.487,5.487,0,0,1,.725-.05,1.11,1.11,0,0,1,1.125.5A5.078,5.078,0,0,1,46-2.95q0,2.9-2.45,3.3-.5.05-1.15.125A10.913,10.913,0,0,1,41.15.55Zm15,0A10.708,10.708,0,0,1,51.3-.5a8.559,8.559,0,0,1-3.325-2.85A7.033,7.033,0,0,1,46.75-7.4a6.223,6.223,0,0,1,1.4-4.25,8.14,8.14,0,0,1,4.55-2.275,41.391,41.391,0,0,1,8.35-.675h1.8v-.85a4.111,4.111,0,0,0-1-3.125,4.97,4.97,0,0,0-3.4-.925,14.9,14.9,0,0,0-2.95.325A19.694,19.694,0,0,0,52.05-18.1a2.605,2.605,0,0,1-2.35.075,2.529,2.529,0,0,1-1.25-1.6,3.185,3.185,0,0,1,.175-2.175A3,3,0,0,1,50.5-23.4a24.759,24.759,0,0,1,4.425-1.275,21.622,21.622,0,0,1,3.825-.375q5.7,0,8.5,2.575t2.8,7.975V-3.4q0,3.85-3.5,3.85Q63,.45,63-3.4v-.3A6.311,6.311,0,0,1,60.475-.6,7.786,7.786,0,0,1,56.15.55Zm1.7-5.05A4.828,4.828,0,0,0,61.4-5.95,5.074,5.074,0,0,0,62.85-9.7v-1H61.1a15.45,15.45,0,0,0-5.45.675A2.362,2.362,0,0,0,54.05-7.7a2.991,2.991,0,0,0,.975,2.3A4.021,4.021,0,0,0,57.85-4.5ZM84,.55a26.671,26.671,0,0,1-4.525-.4A15.129,15.129,0,0,1,75.25-1.2a3.177,3.177,0,0,1-1.625-1.65A2.715,2.715,0,0,1,73.6-4.8a2.563,2.563,0,0,1,1.25-1.425,2.381,2.381,0,0,1,2.1.025A20.729,20.729,0,0,0,80.725-5a16.716,16.716,0,0,0,3.325.35,5.627,5.627,0,0,0,3.1-.675,2.055,2.055,0,0,0,1-1.775q0-1.75-2.55-2.2l-5.25-.95a8.53,8.53,0,0,1-4.8-2.25,6.119,6.119,0,0,1-1.65-4.45,6.8,6.8,0,0,1,1.4-4.3,9.1,9.1,0,0,1,3.85-2.8,14.862,14.862,0,0,1,5.65-1,17.214,17.214,0,0,1,7.8,1.7,2.447,2.447,0,0,1,1.425,1.55,2.905,2.905,0,0,1-.125,1.95,2.784,2.784,0,0,1-1.3,1.425,2.4,2.4,0,0,1-2.15-.075,16.951,16.951,0,0,0-3-1.075A10.912,10.912,0,0,0,84.9-19.9a5.643,5.643,0,0,0-3.25.725,2.178,2.178,0,0,0-1,1.825q0,1.75,2.35,2.2l5.25.95a9.22,9.22,0,0,1,4.95,2.175A5.832,5.832,0,0,1,94.9-7.6a6.963,6.963,0,0,1-3,6A13.271,13.271,0,0,1,84,.55Zm17.9-.1q-3.8,0-3.8-3.85V-31.85q0-3.85,3.8-3.85,3.75,0,3.75,3.85V-21.2A8.334,8.334,0,0,1,109-24.075a10.459,10.459,0,0,1,4.55-.975q8.65,0,8.65,10.3V-3.4q0,3.85-3.8,3.85a3.7,3.7,0,0,1-2.775-1,3.915,3.915,0,0,1-.975-2.85v-11a5.683,5.683,0,0,0-.95-3.675,3.459,3.459,0,0,0-2.8-1.125,5.027,5.027,0,0,0-3.825,1.5,5.568,5.568,0,0,0-1.425,4V-3.4Q105.65.45,101.9.45Zm42.6.1a19.793,19.793,0,0,1-9.75-2.25,15.377,15.377,0,0,1-6.225-6.325,20.159,20.159,0,0,1-2.175-9.625,20.047,20.047,0,0,1,2.175-9.575,15.377,15.377,0,0,1,6.225-6.325,19.793,19.793,0,0,1,9.75-2.25,20.681,20.681,0,0,1,5.075.65,17.4,17.4,0,0,1,4.475,1.75,3.725,3.725,0,0,1,1.9,2.25,3.622,3.622,0,0,1-.225,2.55,3.338,3.338,0,0,1-1.775,1.7,2.994,2.994,0,0,1-2.7-.35,11.243,11.243,0,0,0-3.15-1.3,14.169,14.169,0,0,0-3.35-.4q-5.05,0-7.625,2.925T134.55-17.65q0,5.45,2.575,8.4T144.75-6.3a14.073,14.073,0,0,0,3.275-.4,12.928,12.928,0,0,0,3.225-1.25,3.3,3.3,0,0,1,2.8-.375,3.281,3.281,0,0,1,1.775,1.6,3.518,3.518,0,0,1,.275,2.45A3.423,3.423,0,0,1,154.4-2.1a15.334,15.334,0,0,1-4.575,1.95A20.963,20.963,0,0,1,144.5.55ZM160,.45a3.292,3.292,0,0,1-3-1.4,3.437,3.437,0,0,1,.05-3.45l12.8-28.05a6.13,6.13,0,0,1,1.9-2.475,4.315,4.315,0,0,1,2.55-.775,4.315,4.315,0,0,1,2.55.775,5.787,5.787,0,0,1,1.85,2.475L191.6-4.4a3.53,3.53,0,0,1,.075,3.475A3.1,3.1,0,0,1,188.85.45a3.892,3.892,0,0,1-2.625-.8,6.559,6.559,0,0,1-1.625-2.5l-2.1-4.8H166.05L164-2.85a7.325,7.325,0,0,1-1.6,2.525A3.435,3.435,0,0,1,160,.45ZM174.2-27l-5.55,13.3h11.3L174.3-27ZM196.85.45a3.817,3.817,0,0,1-2.9-1.05,4.107,4.107,0,0,1-1-2.95V-31.3q0-3.95,3.95-3.95h12.15q5.9,0,9.1,2.85a10.094,10.094,0,0,1,3.2,7.95,10.445,10.445,0,0,1-2.025,6.575A10.165,10.165,0,0,1,213.55-14.3a7.549,7.549,0,0,1,4.35,3.85L221-4.7a3.988,3.988,0,0,1,.4,3.525Q220.75.45,218.25.45a4.777,4.777,0,0,1-2.7-.7,5.59,5.59,0,0,1-1.8-2.15l-4.8-8.85a4.09,4.09,0,0,0-1.85-1.9,6.238,6.238,0,0,0-2.6-.5h-3.8v10.1a4.172,4.172,0,0,1-.975,2.95A3.733,3.733,0,0,1,196.85.45Zm3.85-19.7h6.95q6.25,0,6.25-5,0-4.95-6.25-4.95H200.7ZM226.95,0q-4.05,0-4.05-4.05V-31.2q0-4.05,4.05-4.05h9.75q9,0,13.95,4.575T255.6-17.65q0,8.45-4.95,13.05T236.7,0Zm3.7-6.35h5.6q11.25,0,11.25-11.3,0-11.25-11.25-11.25h-5.6Z" transform="translate(-3.55 45.568)" fill="#639aa6"/><g transform="translate(-121.55 -63.432)"><path d="M16.15.55a29.87,29.87,0,0,1-6.4-.7A19.424,19.424,0,0,1,4.2-2.2,3.282,3.282,0,0,1,2.45-4.225,3.71,3.71,0,0,1,2.6-6.7,3.086,3.086,0,0,1,4.2-8.4a3.067,3.067,0,0,1,2.65.25,15.818,15.818,0,0,0,4.45,1.7,22.09,22.09,0,0,0,4.85.55q3.6,0,5.175-1.125A3.362,3.362,0,0,0,22.9-9.85a2.753,2.753,0,0,0-1.1-2.3,10.16,10.16,0,0,0-3.85-1.45L12.3-14.8q-9.45-2-9.45-9.8a9.859,9.859,0,0,1,1.8-5.875A11.733,11.733,0,0,1,9.675-34.4a18.632,18.632,0,0,1,7.475-1.4,22.592,22.592,0,0,1,5.5.675A16.09,16.09,0,0,1,27.4-33.15a3.152,3.152,0,0,1,1.55,1.95,3.506,3.506,0,0,1-.175,2.3,2.814,2.814,0,0,1-1.6,1.55A3.433,3.433,0,0,1,24.4-27.7a14.125,14.125,0,0,0-3.5-1.25,17.931,17.931,0,0,0-3.8-.4,8.329,8.329,0,0,0-4.875,1.225A3.737,3.737,0,0,0,10.5-24.95a2.947,2.947,0,0,0,1.05,2.35,8.472,8.472,0,0,0,3.65,1.45l5.65,1.2q9.7,2.1,9.7,9.5a9.65,9.65,0,0,1-1.775,5.775,11.542,11.542,0,0,1-5,3.85A19.35,19.35,0,0,1,16.15.55Z" transform="translate(371 108)" fill="#bababb"/><g transform="translate(-2 -2.525)"><path d="M5,0H30a5,5,0,0,1,5,5V42a5,5,0,0,1-5,5H5a5,5,0,0,1-5-5V5A5,5,0,0,1,5,0Z" transform="matrix(0.978, 0.208, -0.208, 0.978, 393.652, 67.4)" fill="#f2385a"/><rect width="35" height="47" rx="5" transform="matrix(0.94, 0.342, -0.342, 0.94, 403.007, 65.957)" fill="#639aa6"/></g><path d="M2.85-24.6a10.135,10.135,0,0,1,1.731-5.875A11.365,11.365,0,0,1,9.415-34.4a17.325,17.325,0,0,1,7.19-1.4,20.945,20.945,0,0,1,5.29.675,15.161,15.161,0,0,1,4.569,1.975,3.135,3.135,0,0,1,1.491,1.95,3.636,3.636,0,0,1-.168,2.3,2.758,2.758,0,0,1-1.539,1.55,3.191,3.191,0,0,1-2.669-.35,13.252,13.252,0,0,0-3.366-1.25,16.615,16.615,0,0,0-3.655-.4,7.779,7.779,0,0,0-4.689,1.225,3.777,3.777,0,0,0-1.659,3.175C10.208-23.983,2.85-19.4,2.85-24.6Z" transform="translate(371.15 108)" fill="#bababb"/></g></svg>